<svg width="125" height="30" viewBox="0 0 125 30" fill="none" xmlns="http://www.w3.org/2000/svg">
<rect width="125" height="30" rx="10" fill="white"/>
<path d="M49.47 17.81C50.4833 17.81 50.99 17.4633 50.99 16.77C50.99 16.5567 50.9433 16.3767 50.85 16.23C50.7633 16.0767 50.6433 15.9467 50.49 15.84C50.3367 15.7267 50.16 15.63 49.96 15.55C49.7667 15.47 49.56 15.39 49.34 15.31C49.0867 15.2233 48.8467 15.1267 48.62 15.02C48.3933 14.9067 48.1967 14.7767 48.03 14.63C47.8633 14.4767 47.73 14.2967 47.63 14.09C47.5367 13.8833 47.49 13.6333 47.49 13.34C47.49 12.7333 47.6967 12.26 48.11 11.92C48.5233 11.58 49.0933 11.41 49.82 11.41C50.24 11.41 50.62 11.4567 50.96 11.55C51.3067 11.6367 51.56 11.7333 51.72 11.84L51.41 12.63C51.27 12.5433 51.06 12.46 50.78 12.38C50.5067 12.2933 50.1867 12.25 49.82 12.25C49.6333 12.25 49.46 12.27 49.3 12.31C49.14 12.35 49 12.41 48.88 12.49C48.76 12.57 48.6633 12.6733 48.59 12.8C48.5233 12.92 48.49 13.0633 48.49 13.23C48.49 13.4167 48.5267 13.5733 48.6 13.7C48.6733 13.8267 48.7767 13.94 48.91 14.04C49.0433 14.1333 49.1967 14.22 49.37 14.3C49.55 14.38 49.7467 14.46 49.96 14.54C50.26 14.66 50.5333 14.78 50.78 14.9C51.0333 15.02 51.25 15.1633 51.43 15.33C51.6167 15.4967 51.76 15.6967 51.86 15.93C51.96 16.1567 52.01 16.4333 52.01 16.76C52.01 17.3667 51.7867 17.8333 51.34 18.16C50.9 18.4867 50.2767 18.65 49.47 18.65C49.1967 18.65 48.9433 18.63 48.71 18.59C48.4833 18.5567 48.28 18.5167 48.1 18.47C47.92 18.4167 47.7633 18.3633 47.63 18.31C47.5033 18.25 47.4033 18.2 47.33 18.16L47.62 17.36C47.7733 17.4467 48.0067 17.5433 48.32 17.65C48.6333 17.7567 49.0167 17.81 49.47 17.81ZM54.0523 18.5H53.1223V13.3H54.0523V18.5ZM53.5823 12.36C53.4156 12.36 53.2723 12.3067 53.1523 12.2C53.0389 12.0867 52.9823 11.9367 52.9823 11.75C52.9823 11.5633 53.0389 11.4167 53.1523 11.31C53.2723 11.1967 53.4156 11.14 53.5823 11.14C53.7489 11.14 53.8889 11.1967 54.0023 11.31C54.1223 11.4167 54.1823 11.5633 54.1823 11.75C54.1823 11.9367 54.1223 12.0867 54.0023 12.2C53.8889 12.3067 53.7489 12.36 53.5823 12.36ZM58.9116 17.98C58.8316 18.0333 58.6749 18.1033 58.4416 18.19C58.2149 18.27 57.9482 18.31 57.6416 18.31C57.3282 18.31 57.0316 18.26 56.7516 18.16C56.4782 18.06 56.2382 17.9067 56.0316 17.7C55.8249 17.4867 55.6616 17.2233 55.5416 16.91C55.4216 16.5967 55.3616 16.2233 55.3616 15.79C55.3616 15.41 55.4182 15.0633 55.5316 14.75C55.6449 14.43 55.8082 14.1567 56.0216 13.93C56.2416 13.6967 56.5082 13.5167 56.8216 13.39C57.1349 13.2567 57.4882 13.19 57.8816 13.19C58.3149 13.19 58.6916 13.2233 59.0116 13.29C59.3382 13.35 59.6116 13.4067 59.8316 13.46V18.1C59.8316 18.9 59.6249 19.48 59.2116 19.84C58.7982 20.2 58.1716 20.38 57.3316 20.38C57.0049 20.38 56.6949 20.3533 56.4016 20.3C56.1149 20.2467 55.8649 20.1833 55.6516 20.11L55.8216 19.3C56.0082 19.3733 56.2349 19.4367 56.5016 19.49C56.7749 19.55 57.0582 19.58 57.3516 19.58C57.9049 19.58 58.3016 19.47 58.5416 19.25C58.7882 19.03 58.9116 18.68 58.9116 18.2V17.98ZM58.9016 14.12C58.8082 14.0933 58.6816 14.07 58.5216 14.05C58.3682 14.0233 58.1582 14.01 57.8916 14.01C57.3916 14.01 57.0049 14.1733 56.7316 14.5C56.4649 14.8267 56.3316 15.26 56.3316 15.8C56.3316 16.1 56.3682 16.3567 56.4416 16.57C56.5216 16.7833 56.6249 16.96 56.7516 17.1C56.8849 17.24 57.0349 17.3433 57.2016 17.41C57.3749 17.4767 57.5516 17.51 57.7316 17.51C57.9782 17.51 58.2049 17.4767 58.4116 17.41C58.6182 17.3367 58.7816 17.2533 58.9016 17.16V14.12ZM61.4328 13.45C61.6461 13.3967 61.9295 13.34 62.2828 13.28C62.6361 13.22 63.0428 13.19 63.5028 13.19C63.9161 13.19 64.2595 13.25 64.5328 13.37C64.8061 13.4833 65.0228 13.6467 65.1828 13.86C65.3495 14.0667 65.4661 14.3167 65.5328 14.61C65.5995 14.9033 65.6328 15.2267 65.6328 15.58V18.5H64.7028V15.78C64.7028 15.46 64.6795 15.1867 64.6328 14.96C64.5928 14.7333 64.5228 14.55 64.4228 14.41C64.3228 14.27 64.1895 14.17 64.0228 14.11C63.8561 14.0433 63.6495 14.01 63.4028 14.01C63.3028 14.01 63.1995 14.0133 63.0928 14.02C62.9861 14.0267 62.8828 14.0367 62.7828 14.05C62.6895 14.0567 62.6028 14.0667 62.5228 14.08C62.4495 14.0933 62.3961 14.1033 62.3628 14.11V18.5H61.4328V13.45ZM69.5495 11.57H70.5195V18.5H69.5495V11.57ZM72.175 13.45C72.3883 13.3967 72.6717 13.34 73.025 13.28C73.3783 13.22 73.785 13.19 74.245 13.19C74.6583 13.19 75.0017 13.25 75.275 13.37C75.5483 13.4833 75.765 13.6467 75.925 13.86C76.0917 14.0667 76.2083 14.3167 76.275 14.61C76.3417 14.9033 76.375 15.2267 76.375 15.58V18.5H75.445V15.78C75.445 15.46 75.4217 15.1867 75.375 14.96C75.335 14.7333 75.265 14.55 75.165 14.41C75.065 14.27 74.9317 14.17 74.765 14.11C74.5983 14.0433 74.3917 14.01 74.145 14.01C74.045 14.01 73.9417 14.0133 73.835 14.02C73.7283 14.0267 73.625 14.0367 73.525 14.05C73.4317 14.0567 73.345 14.0667 73.265 14.08C73.1917 14.0933 73.1383 14.1033 73.105 14.11V18.5H72.175V13.45Z" fill="black"/>
</svg>
