<svg width="125" height="31" viewBox="0 0 125 31" fill="none" xmlns="http://www.w3.org/2000/svg">
<rect y="0.5" width="125" height="30" rx="10" fill="white"/>
<path d="M112 17.8804C115.254 17.8804 118 18.4092 118 20.4492C118 22.49 115.236 23 112 23C108.747 23 106 22.4712 106 20.4312C106 18.3905 108.764 17.8804 112 17.8804ZM112 8C114.204 8 115.97 9.76552 115.97 11.9683C115.97 14.1711 114.204 15.9373 112 15.9373C109.796 15.9373 108.03 14.1711 108.03 11.9683C108.03 9.76552 109.796 8 112 8Z" fill="black"/>
<path d="M15.47 18.31C16.4833 18.31 16.99 17.9633 16.99 17.27C16.99 17.0567 16.9433 16.8767 16.85 16.73C16.7633 16.5767 16.6433 16.4467 16.49 16.34C16.3367 16.2267 16.16 16.13 15.96 16.05C15.7667 15.97 15.56 15.89 15.34 15.81C15.0867 15.7233 14.8467 15.6267 14.62 15.52C14.3933 15.4067 14.1967 15.2767 14.03 15.13C13.8633 14.9767 13.73 14.7967 13.63 14.59C13.5367 14.3833 13.49 14.1333 13.49 13.84C13.49 13.2333 13.6967 12.76 14.11 12.42C14.5233 12.08 15.0933 11.91 15.82 11.91C16.24 11.91 16.62 11.9567 16.96 12.05C17.3067 12.1367 17.56 12.2333 17.72 12.34L17.41 13.13C17.27 13.0433 17.06 12.96 16.78 12.88C16.5067 12.7933 16.1867 12.75 15.82 12.75C15.6333 12.75 15.46 12.77 15.3 12.81C15.14 12.85 15 12.91 14.88 12.99C14.76 13.07 14.6633 13.1733 14.59 13.3C14.5233 13.42 14.49 13.5633 14.49 13.73C14.49 13.9167 14.5267 14.0733 14.6 14.2C14.6733 14.3267 14.7767 14.44 14.91 14.54C15.0433 14.6333 15.1967 14.72 15.37 14.8C15.55 14.88 15.7467 14.96 15.96 15.04C16.26 15.16 16.5333 15.28 16.78 15.4C17.0333 15.52 17.25 15.6633 17.43 15.83C17.6167 15.9967 17.76 16.1967 17.86 16.43C17.96 16.6567 18.01 16.9333 18.01 17.26C18.01 17.8667 17.7867 18.3333 17.34 18.66C16.9 18.9867 16.2767 19.15 15.47 19.15C15.1967 19.15 14.9433 19.13 14.71 19.09C14.4833 19.0567 14.28 19.0167 14.1 18.97C13.92 18.9167 13.7633 18.8633 13.63 18.81C13.5033 18.75 13.4033 18.7 13.33 18.66L13.62 17.86C13.7733 17.9467 14.0067 18.0433 14.32 18.15C14.6333 18.2567 15.0167 18.31 15.47 18.31ZM20.0523 19H19.1223V13.8H20.0523V19ZM19.5823 12.86C19.4156 12.86 19.2723 12.8067 19.1523 12.7C19.0389 12.5867 18.9823 12.4367 18.9823 12.25C18.9823 12.0633 19.0389 11.9167 19.1523 11.81C19.2723 11.6967 19.4156 11.64 19.5823 11.64C19.7489 11.64 19.8889 11.6967 20.0023 11.81C20.1223 11.9167 20.1823 12.0633 20.1823 12.25C20.1823 12.4367 20.1223 12.5867 20.0023 12.7C19.8889 12.8067 19.7489 12.86 19.5823 12.86ZM24.9116 18.48C24.8316 18.5333 24.6749 18.6033 24.4416 18.69C24.2149 18.77 23.9482 18.81 23.6416 18.81C23.3282 18.81 23.0316 18.76 22.7516 18.66C22.4782 18.56 22.2382 18.4067 22.0316 18.2C21.8249 17.9867 21.6616 17.7233 21.5416 17.41C21.4216 17.0967 21.3616 16.7233 21.3616 16.29C21.3616 15.91 21.4182 15.5633 21.5316 15.25C21.6449 14.93 21.8082 14.6567 22.0216 14.43C22.2416 14.1967 22.5082 14.0167 22.8216 13.89C23.1349 13.7567 23.4882 13.69 23.8816 13.69C24.3149 13.69 24.6916 13.7233 25.0116 13.79C25.3382 13.85 25.6116 13.9067 25.8316 13.96V18.6C25.8316 19.4 25.6249 19.98 25.2116 20.34C24.7982 20.7 24.1716 20.88 23.3316 20.88C23.0049 20.88 22.6949 20.8533 22.4016 20.8C22.1149 20.7467 21.8649 20.6833 21.6516 20.61L21.8216 19.8C22.0082 19.8733 22.2349 19.9367 22.5016 19.99C22.7749 20.05 23.0582 20.08 23.3516 20.08C23.9049 20.08 24.3016 19.97 24.5416 19.75C24.7882 19.53 24.9116 19.18 24.9116 18.7V18.48ZM24.9016 14.62C24.8082 14.5933 24.6816 14.57 24.5216 14.55C24.3682 14.5233 24.1582 14.51 23.8916 14.51C23.3916 14.51 23.0049 14.6733 22.7316 15C22.4649 15.3267 22.3316 15.76 22.3316 16.3C22.3316 16.6 22.3682 16.8567 22.4416 17.07C22.5216 17.2833 22.6249 17.46 22.7516 17.6C22.8849 17.74 23.0349 17.8433 23.2016 17.91C23.3749 17.9767 23.5516 18.01 23.7316 18.01C23.9782 18.01 24.2049 17.9767 24.4116 17.91C24.6182 17.8367 24.7816 17.7533 24.9016 17.66V14.62ZM27.4328 13.95C27.6461 13.8967 27.9295 13.84 28.2828 13.78C28.6361 13.72 29.0428 13.69 29.5028 13.69C29.9161 13.69 30.2595 13.75 30.5328 13.87C30.8061 13.9833 31.0228 14.1467 31.1828 14.36C31.3495 14.5667 31.4661 14.8167 31.5328 15.11C31.5995 15.4033 31.6328 15.7267 31.6328 16.08V19H30.7028V16.28C30.7028 15.96 30.6795 15.6867 30.6328 15.46C30.5928 15.2333 30.5228 15.05 30.4228 14.91C30.3228 14.77 30.1895 14.67 30.0228 14.61C29.8561 14.5433 29.6495 14.51 29.4028 14.51C29.3028 14.51 29.1995 14.5133 29.0928 14.52C28.9861 14.5267 28.8828 14.5367 28.7828 14.55C28.6895 14.5567 28.6028 14.5667 28.5228 14.58C28.4495 14.5933 28.3961 14.6033 28.3628 14.61V19H27.4328V13.95ZM35.5495 12.07H36.5195V19H35.5495V12.07ZM38.175 13.95C38.3883 13.8967 38.6717 13.84 39.025 13.78C39.3783 13.72 39.785 13.69 40.245 13.69C40.6583 13.69 41.0017 13.75 41.275 13.87C41.5483 13.9833 41.765 14.1467 41.925 14.36C42.0917 14.5667 42.2083 14.8167 42.275 15.11C42.3417 15.4033 42.375 15.7267 42.375 16.08V19H41.445V16.28C41.445 15.96 41.4217 15.6867 41.375 15.46C41.335 15.2333 41.265 15.05 41.165 14.91C41.065 14.77 40.9317 14.67 40.765 14.61C40.5983 14.5433 40.3917 14.51 40.145 14.51C40.045 14.51 39.9417 14.5133 39.835 14.52C39.7283 14.5267 39.625 14.5367 39.525 14.55C39.4317 14.5567 39.345 14.5667 39.265 14.58C39.1917 14.5933 39.1383 14.6033 39.105 14.61V19H38.175V13.95ZM47.9916 18.33C48.2116 18.33 48.405 18.3267 48.5716 18.32C48.745 18.3067 48.8883 18.2867 49.0016 18.26V16.71C48.935 16.6767 48.825 16.65 48.6716 16.63C48.525 16.6033 48.345 16.59 48.1316 16.59C47.9916 16.59 47.8416 16.6 47.6816 16.62C47.5283 16.64 47.385 16.6833 47.2516 16.75C47.125 16.81 47.0183 16.8967 46.9316 17.01C46.845 17.1167 46.8016 17.26 46.8016 17.44C46.8016 17.7733 46.9083 18.0067 47.1216 18.14C47.335 18.2667 47.625 18.33 47.9916 18.33ZM47.9116 13.67C48.285 13.67 48.5983 13.72 48.8516 13.82C49.1116 13.9133 49.3183 14.05 49.4716 14.23C49.6316 14.4033 49.745 14.6133 49.8116 14.86C49.8783 15.1 49.9116 15.3667 49.9116 15.66V18.91C49.8316 18.9233 49.7183 18.9433 49.5716 18.97C49.4316 18.99 49.2716 19.01 49.0916 19.03C48.9116 19.05 48.715 19.0667 48.5016 19.08C48.295 19.1 48.0883 19.11 47.8816 19.11C47.5883 19.11 47.3183 19.08 47.0716 19.02C46.825 18.96 46.6116 18.8667 46.4316 18.74C46.2516 18.6067 46.1116 18.4333 46.0116 18.22C45.9116 18.0067 45.8616 17.75 45.8616 17.45C45.8616 17.1633 45.9183 16.9167 46.0316 16.71C46.1516 16.5033 46.3116 16.3367 46.5116 16.21C46.7116 16.0833 46.945 15.99 47.2116 15.93C47.4783 15.87 47.7583 15.84 48.0516 15.84C48.145 15.84 48.2416 15.8467 48.3416 15.86C48.4416 15.8667 48.535 15.88 48.6216 15.9C48.715 15.9133 48.795 15.9267 48.8616 15.94C48.9283 15.9533 48.975 15.9633 49.0016 15.97V15.71C49.0016 15.5567 48.985 15.4067 48.9516 15.26C48.9183 15.1067 48.8583 14.9733 48.7716 14.86C48.685 14.74 48.565 14.6467 48.4116 14.58C48.265 14.5067 48.0716 14.47 47.8316 14.47C47.525 14.47 47.255 14.4933 47.0216 14.54C46.795 14.58 46.625 14.6233 46.5116 14.67L46.4016 13.9C46.5216 13.8467 46.7216 13.7967 47.0016 13.75C47.2816 13.6967 47.585 13.67 47.9116 13.67ZM52.6663 18.33C53.0463 18.33 53.3263 18.28 53.5063 18.18C53.6929 18.08 53.7863 17.92 53.7863 17.7C53.7863 17.4733 53.6963 17.2933 53.5163 17.16C53.3363 17.0267 53.0396 16.8767 52.6263 16.71C52.4263 16.63 52.2329 16.55 52.0463 16.47C51.8663 16.3833 51.7096 16.2833 51.5763 16.17C51.4429 16.0567 51.3363 15.92 51.2563 15.76C51.1763 15.6 51.1363 15.4033 51.1363 15.17C51.1363 14.71 51.3063 14.3467 51.6463 14.08C51.9863 13.8067 52.4496 13.67 53.0363 13.67C53.1829 13.67 53.3296 13.68 53.4763 13.7C53.6229 13.7133 53.7596 13.7333 53.8863 13.76C54.0129 13.78 54.1229 13.8033 54.2163 13.83C54.3163 13.8567 54.3929 13.88 54.4463 13.9L54.2763 14.7C54.1763 14.6467 54.0196 14.5933 53.8063 14.54C53.5929 14.48 53.3363 14.45 53.0363 14.45C52.7763 14.45 52.5496 14.5033 52.3563 14.61C52.1629 14.71 52.0663 14.87 52.0663 15.09C52.0663 15.2033 52.0863 15.3033 52.1262 15.39C52.1729 15.4767 52.2396 15.5567 52.3263 15.63C52.4196 15.6967 52.5329 15.76 52.6663 15.82C52.7996 15.88 52.9596 15.9433 53.1463 16.01C53.3929 16.1033 53.6129 16.1967 53.8063 16.29C53.9996 16.3767 54.1629 16.48 54.2963 16.6C54.4363 16.72 54.5429 16.8667 54.6163 17.04C54.6896 17.2067 54.7263 17.4133 54.7263 17.66C54.7263 18.14 54.5463 18.5033 54.1863 18.75C53.8329 18.9967 53.3263 19.12 52.6663 19.12C52.2063 19.12 51.8463 19.08 51.5863 19C51.3263 18.9267 51.1496 18.87 51.0563 18.83L51.2263 18.03C51.3329 18.07 51.5029 18.13 51.7363 18.21C51.9696 18.29 52.2796 18.33 52.6663 18.33ZM59.9936 18.33C60.2136 18.33 60.4069 18.3267 60.5736 18.32C60.7469 18.3067 60.8903 18.2867 61.0036 18.26V16.71C60.9369 16.6767 60.8269 16.65 60.6736 16.63C60.5269 16.6033 60.3469 16.59 60.1336 16.59C59.9936 16.59 59.8436 16.6 59.6836 16.62C59.5303 16.64 59.3869 16.6833 59.2536 16.75C59.1269 16.81 59.0203 16.8967 58.9336 17.01C58.8469 17.1167 58.8036 17.26 58.8036 17.44C58.8036 17.7733 58.9103 18.0067 59.1236 18.14C59.3369 18.2667 59.6269 18.33 59.9936 18.33ZM59.9136 13.67C60.2869 13.67 60.6003 13.72 60.8536 13.82C61.1136 13.9133 61.3203 14.05 61.4736 14.23C61.6336 14.4033 61.7469 14.6133 61.8136 14.86C61.8803 15.1 61.9136 15.3667 61.9136 15.66V18.91C61.8336 18.9233 61.7203 18.9433 61.5736 18.97C61.4336 18.99 61.2736 19.01 61.0936 19.03C60.9136 19.05 60.7169 19.0667 60.5036 19.08C60.2969 19.1 60.0903 19.11 59.8836 19.11C59.5903 19.11 59.3203 19.08 59.0736 19.02C58.8269 18.96 58.6136 18.8667 58.4336 18.74C58.2536 18.6067 58.1136 18.4333 58.0136 18.22C57.9136 18.0067 57.8636 17.75 57.8636 17.45C57.8636 17.1633 57.9203 16.9167 58.0336 16.71C58.1536 16.5033 58.3136 16.3367 58.5136 16.21C58.7136 16.0833 58.9469 15.99 59.2136 15.93C59.4803 15.87 59.7603 15.84 60.0536 15.84C60.1469 15.84 60.2436 15.8467 60.3436 15.86C60.4436 15.8667 60.5369 15.88 60.6236 15.9C60.7169 15.9133 60.7969 15.9267 60.8636 15.94C60.9303 15.9533 60.9769 15.9633 61.0036 15.97V15.71C61.0036 15.5567 60.9869 15.4067 60.9536 15.26C60.9203 15.1067 60.8603 14.9733 60.7736 14.86C60.6869 14.74 60.5669 14.6467 60.4136 14.58C60.2669 14.5067 60.0736 14.47 59.8336 14.47C59.5269 14.47 59.2569 14.4933 59.0236 14.54C58.7969 14.58 58.6269 14.6233 58.5136 14.67L58.4036 13.9C58.5236 13.8467 58.7236 13.7967 59.0036 13.75C59.2836 13.6967 59.5869 13.67 59.9136 13.67ZM70.0627 15.59H71.0327V18.83C70.9527 18.8567 70.836 18.8867 70.6827 18.92C70.536 18.9533 70.3627 18.9867 70.1627 19.02C69.9693 19.0533 69.756 19.08 69.5227 19.1C69.2893 19.1267 69.0527 19.14 68.8127 19.14C68.326 19.14 67.8827 19.06 67.4827 18.9C67.0827 18.74 66.7393 18.5067 66.4527 18.2C66.166 17.8933 65.9427 17.5167 65.7827 17.07C65.6293 16.6233 65.5527 16.11 65.5527 15.53C65.5527 14.95 65.6393 14.4367 65.8127 13.99C65.9927 13.5367 66.2327 13.1567 66.5327 12.85C66.8327 12.5433 67.1827 12.31 67.5827 12.15C67.9893 11.99 68.4227 11.91 68.8827 11.91C69.196 11.91 69.4727 11.93 69.7127 11.97C69.9593 12.01 70.1693 12.0567 70.3427 12.11C70.516 12.1633 70.656 12.2167 70.7627 12.27C70.876 12.3233 70.9527 12.3633 70.9927 12.39L70.6827 13.2C70.4893 13.0733 70.2327 12.97 69.9127 12.89C69.5927 12.8033 69.266 12.76 68.9327 12.76C68.5793 12.76 68.256 12.8233 67.9627 12.95C67.676 13.0767 67.4293 13.26 67.2227 13.5C67.0227 13.74 66.866 14.0333 66.7527 14.38C66.6393 14.72 66.5827 15.1033 66.5827 15.53C66.5827 15.9433 66.6293 16.32 66.7227 16.66C66.8227 17 66.9693 17.2933 67.1627 17.54C67.3627 17.78 67.606 17.9667 67.8927 18.1C68.186 18.2333 68.5293 18.3 68.9227 18.3C69.2027 18.3 69.4393 18.2867 69.6327 18.26C69.8327 18.2267 69.976 18.1967 70.0627 18.17V15.59ZM76.6314 18.85C76.4181 18.9033 76.1347 18.96 75.7814 19.02C75.4347 19.08 75.0314 19.11 74.5714 19.11C74.1714 19.11 73.8347 19.0533 73.5614 18.94C73.2881 18.82 73.0681 18.6533 72.9014 18.44C72.7347 18.2267 72.6147 17.9767 72.5414 17.69C72.4681 17.3967 72.4314 17.0733 72.4314 16.72V13.8H73.3614V16.52C73.3614 17.1533 73.4614 17.6067 73.6614 17.88C73.8614 18.1533 74.1981 18.29 74.6714 18.29C74.7714 18.29 74.8747 18.2867 74.9814 18.28C75.0881 18.2733 75.1881 18.2667 75.2814 18.26C75.3747 18.2467 75.4581 18.2367 75.5314 18.23C75.6114 18.2167 75.6681 18.2033 75.7014 18.19V13.8H76.6314V18.85ZM77.9436 16.41C77.9436 15.95 78.0103 15.55 78.1436 15.21C78.2769 14.8633 78.4536 14.5767 78.6736 14.35C78.8936 14.1233 79.1469 13.9533 79.4336 13.84C79.7203 13.7267 80.0136 13.67 80.3136 13.67C81.0136 13.67 81.5503 13.89 81.9236 14.33C82.2969 14.7633 82.4836 15.4267 82.4836 16.32C82.4836 16.36 82.4836 16.4133 82.4836 16.48C82.4836 16.54 82.4803 16.5967 82.4736 16.65H78.9136C78.9536 17.19 79.1103 17.6 79.3836 17.88C79.6569 18.16 80.0836 18.3 80.6636 18.3C80.9903 18.3 81.2636 18.2733 81.4836 18.22C81.7103 18.16 81.8803 18.1033 81.9936 18.05L82.1236 18.83C82.0103 18.89 81.8103 18.9533 81.5236 19.02C81.2436 19.0867 80.9236 19.12 80.5636 19.12C80.1103 19.12 79.7169 19.0533 79.3836 18.92C79.0569 18.78 78.7869 18.59 78.5736 18.35C78.3603 18.11 78.2003 17.8267 78.0936 17.5C77.9936 17.1667 77.9436 16.8033 77.9436 16.41ZM81.5136 15.9C81.5203 15.48 81.4136 15.1367 81.1936 14.87C80.9803 14.5967 80.6836 14.46 80.3036 14.46C80.0903 14.46 79.9003 14.5033 79.7336 14.59C79.5736 14.67 79.4369 14.7767 79.3236 14.91C79.2103 15.0433 79.1203 15.1967 79.0536 15.37C78.9936 15.5433 78.9536 15.72 78.9336 15.9H81.5136ZM85.0295 18.33C85.4095 18.33 85.6895 18.28 85.8695 18.18C86.0562 18.08 86.1495 17.92 86.1495 17.7C86.1495 17.4733 86.0595 17.2933 85.8795 17.16C85.6995 17.0267 85.4029 16.8767 84.9895 16.71C84.7895 16.63 84.5962 16.55 84.4095 16.47C84.2295 16.3833 84.0729 16.2833 83.9395 16.17C83.8062 16.0567 83.6995 15.92 83.6195 15.76C83.5395 15.6 83.4995 15.4033 83.4995 15.17C83.4995 14.71 83.6695 14.3467 84.0095 14.08C84.3495 13.8067 84.8129 13.67 85.3995 13.67C85.5462 13.67 85.6929 13.68 85.8395 13.7C85.9862 13.7133 86.1229 13.7333 86.2495 13.76C86.3762 13.78 86.4862 13.8033 86.5795 13.83C86.6795 13.8567 86.7562 13.88 86.8095 13.9L86.6395 14.7C86.5395 14.6467 86.3829 14.5933 86.1695 14.54C85.9562 14.48 85.6995 14.45 85.3995 14.45C85.1395 14.45 84.9129 14.5033 84.7195 14.61C84.5262 14.71 84.4295 14.87 84.4295 15.09C84.4295 15.2033 84.4495 15.3033 84.4895 15.39C84.5362 15.4767 84.6029 15.5567 84.6895 15.63C84.7829 15.6967 84.8962 15.76 85.0295 15.82C85.1629 15.88 85.3229 15.9433 85.5095 16.01C85.7562 16.1033 85.9762 16.1967 86.1695 16.29C86.3629 16.3767 86.5262 16.48 86.6595 16.6C86.7995 16.72 86.9062 16.8667 86.9795 17.04C87.0529 17.2067 87.0895 17.4133 87.0895 17.66C87.0895 18.14 86.9095 18.5033 86.5495 18.75C86.1962 18.9967 85.6895 19.12 85.0295 19.12C84.5695 19.12 84.2095 19.08 83.9495 19C83.6895 18.9267 83.5129 18.87 83.4195 18.83L83.5895 18.03C83.6962 18.07 83.8662 18.13 84.0995 18.21C84.3329 18.29 84.6429 18.33 85.0295 18.33ZM89.1524 13.8H91.1224V14.58H89.1524V16.98C89.1524 17.24 89.1724 17.4567 89.2124 17.63C89.2524 17.7967 89.3124 17.93 89.3924 18.03C89.4724 18.1233 89.5724 18.19 89.6924 18.23C89.8124 18.27 89.9524 18.29 90.1124 18.29C90.3924 18.29 90.6158 18.26 90.7824 18.2C90.9558 18.1333 91.0758 18.0867 91.1424 18.06L91.3224 18.83C91.2291 18.8767 91.0658 18.9333 90.8324 19C90.5991 19.0733 90.3324 19.11 90.0324 19.11C89.6791 19.11 89.3858 19.0667 89.1524 18.98C88.9258 18.8867 88.7424 18.75 88.6024 18.57C88.4624 18.39 88.3624 18.17 88.3024 17.91C88.2491 17.6433 88.2224 17.3367 88.2224 16.99V12.35L89.1524 12.19V13.8Z" fill="black"/>
</svg>
