<svg width="125" height="30" viewBox="0 0 125 30" fill="none" xmlns="http://www.w3.org/2000/svg">
<rect width="125" height="30" rx="10" fill="white"/>
<path d="M31.55 14.53C31.55 15.13 31.4567 15.6533 31.27 16.1C31.0833 16.54 30.82 16.9067 30.48 17.2C30.14 17.4867 29.7333 17.7033 29.26 17.85C28.7867 17.99 28.2667 18.06 27.7 18.06C27.42 18.06 27.11 18.0467 26.77 18.02C26.4367 18 26.1333 17.9567 25.86 17.89V11.17C26.1333 11.1033 26.4367 11.06 26.77 11.04C27.11 11.0133 27.42 11 27.7 11C28.2667 11 28.7867 11.0733 29.26 11.22C29.7333 11.36 30.14 11.5767 30.48 11.87C30.82 12.1567 31.0833 12.5233 31.27 12.97C31.4567 13.41 31.55 13.93 31.55 14.53ZM27.78 17.21C28.7 17.21 29.3867 16.9767 29.84 16.51C30.2933 16.0367 30.52 15.3767 30.52 14.53C30.52 13.6833 30.2933 13.0267 29.84 12.56C29.3867 12.0867 28.7 11.85 27.78 11.85C27.5067 11.85 27.2933 11.8533 27.14 11.86C26.9933 11.8667 26.89 11.8733 26.83 11.88V17.18C26.89 17.1867 26.9933 17.1933 27.14 17.2C27.2933 17.2067 27.5067 17.21 27.78 17.21ZM32.6389 15.41C32.6389 14.95 32.7056 14.55 32.8389 14.21C32.9722 13.8633 33.1489 13.5767 33.3689 13.35C33.5889 13.1233 33.8422 12.9533 34.1289 12.84C34.4156 12.7267 34.7089 12.67 35.0089 12.67C35.7089 12.67 36.2456 12.89 36.6189 13.33C36.9922 13.7633 37.1789 14.4267 37.1789 15.32C37.1789 15.36 37.1789 15.4133 37.1789 15.48C37.1789 15.54 37.1756 15.5967 37.1689 15.65H33.6089C33.6489 16.19 33.8056 16.6 34.0789 16.88C34.3522 17.16 34.7789 17.3 35.3589 17.3C35.6856 17.3 35.9589 17.2733 36.1789 17.22C36.4056 17.16 36.5756 17.1033 36.6889 17.05L36.8189 17.83C36.7056 17.89 36.5056 17.9533 36.2189 18.02C35.9389 18.0867 35.6189 18.12 35.2589 18.12C34.8056 18.12 34.4122 18.0533 34.0789 17.92C33.7522 17.78 33.4822 17.59 33.2689 17.35C33.0556 17.11 32.8956 16.8267 32.7889 16.5C32.6889 16.1667 32.6389 15.8033 32.6389 15.41ZM36.2089 14.9C36.2156 14.48 36.1089 14.1367 35.8889 13.87C35.6756 13.5967 35.3789 13.46 34.9989 13.46C34.7856 13.46 34.5956 13.5033 34.4289 13.59C34.2689 13.67 34.1322 13.7767 34.0189 13.91C33.9056 14.0433 33.8156 14.1967 33.7489 14.37C33.6889 14.5433 33.6489 14.72 33.6289 14.9H36.2089ZM42.5748 12.8C42.3148 13.7733 42.0082 14.7067 41.6548 15.6C41.3082 16.4933 40.9715 17.2933 40.6448 18H39.8048C39.4782 17.2933 39.1382 16.4933 38.7848 15.6C38.4382 14.7067 38.1348 13.7733 37.8748 12.8H38.8748C38.9548 13.1267 39.0482 13.4767 39.1548 13.85C39.2682 14.2167 39.3848 14.5833 39.5048 14.95C39.6315 15.31 39.7582 15.66 39.8848 16C40.0115 16.34 40.1315 16.6433 40.2448 16.91C40.3582 16.6433 40.4782 16.34 40.6048 16C40.7315 15.66 40.8548 15.31 40.9748 14.95C41.1015 14.5833 41.2182 14.2167 41.3248 13.85C41.4382 13.4767 41.5348 13.1267 41.6148 12.8H42.5748ZM43.1077 15.41C43.1077 14.95 43.1743 14.55 43.3077 14.21C43.441 13.8633 43.6177 13.5767 43.8377 13.35C44.0577 13.1233 44.311 12.9533 44.5977 12.84C44.8843 12.7267 45.1777 12.67 45.4777 12.67C46.1777 12.67 46.7143 12.89 47.0877 13.33C47.461 13.7633 47.6477 14.4267 47.6477 15.32C47.6477 15.36 47.6477 15.4133 47.6477 15.48C47.6477 15.54 47.6443 15.5967 47.6377 15.65H44.0777C44.1177 16.19 44.2743 16.6 44.5477 16.88C44.821 17.16 45.2477 17.3 45.8277 17.3C46.1543 17.3 46.4277 17.2733 46.6477 17.22C46.8743 17.16 47.0443 17.1033 47.1577 17.05L47.2877 17.83C47.1743 17.89 46.9743 17.9533 46.6877 18.02C46.4077 18.0867 46.0877 18.12 45.7277 18.12C45.2743 18.12 44.881 18.0533 44.5477 17.92C44.221 17.78 43.951 17.59 43.7377 17.35C43.5243 17.11 43.3643 16.8267 43.2577 16.5C43.1577 16.1667 43.1077 15.8033 43.1077 15.41ZM46.6777 14.9C46.6843 14.48 46.5777 14.1367 46.3577 13.87C46.1443 13.5967 45.8477 13.46 45.4677 13.46C45.2543 13.46 45.0643 13.5033 44.8977 13.59C44.7377 13.67 44.601 13.7767 44.4877 13.91C44.3743 14.0433 44.2843 14.1967 44.2177 14.37C44.1577 14.5433 44.1177 14.72 44.0977 14.9H46.6777ZM50.5436 18.1C49.9703 18.0867 49.5636 17.9633 49.3236 17.73C49.0836 17.4967 48.9636 17.1333 48.9636 16.64V10.4L49.8936 10.24V16.49C49.8936 16.6433 49.9069 16.77 49.9336 16.87C49.9603 16.97 50.0036 17.05 50.0636 17.11C50.1236 17.17 50.2036 17.2167 50.3036 17.25C50.4036 17.2767 50.5269 17.3 50.6736 17.32L50.5436 18.1ZM56.308 15.4C56.308 15.8133 56.248 16.1867 56.128 16.52C56.008 16.8533 55.838 17.14 55.618 17.38C55.4046 17.62 55.148 17.8067 54.848 17.94C54.548 18.0667 54.2213 18.13 53.868 18.13C53.5146 18.13 53.188 18.0667 52.888 17.94C52.588 17.8067 52.328 17.62 52.108 17.38C51.8946 17.14 51.728 16.8533 51.608 16.52C51.488 16.1867 51.428 15.8133 51.428 15.4C51.428 14.9933 51.488 14.6233 51.608 14.29C51.728 13.95 51.8946 13.66 52.108 13.42C52.328 13.18 52.588 12.9967 52.888 12.87C53.188 12.7367 53.5146 12.67 53.868 12.67C54.2213 12.67 54.548 12.7367 54.848 12.87C55.148 12.9967 55.4046 13.18 55.618 13.42C55.838 13.66 56.008 13.95 56.128 14.29C56.248 14.6233 56.308 14.9933 56.308 15.4ZM55.338 15.4C55.338 14.8133 55.2046 14.35 54.938 14.01C54.678 13.6633 54.3213 13.49 53.868 13.49C53.4146 13.49 53.0546 13.6633 52.788 14.01C52.528 14.35 52.398 14.8133 52.398 15.4C52.398 15.9867 52.528 16.4533 52.788 16.8C53.0546 17.14 53.4146 17.31 53.868 17.31C54.3213 17.31 54.678 17.14 54.938 16.8C55.2046 16.4533 55.338 15.9867 55.338 15.4ZM61.2264 15.41C61.2264 14.8033 61.0764 14.3367 60.7764 14.01C60.4764 13.6833 60.0764 13.52 59.5764 13.52C59.2964 13.52 59.0764 13.53 58.9164 13.55C58.7631 13.57 58.6397 13.5933 58.5464 13.62V16.9C58.6597 16.9933 58.8231 17.0833 59.0364 17.17C59.2497 17.2567 59.4831 17.3 59.7364 17.3C60.0031 17.3 60.2297 17.2533 60.4164 17.16C60.6097 17.06 60.7664 16.9267 60.8864 16.76C61.0064 16.5867 61.0931 16.3867 61.1464 16.16C61.1997 15.9267 61.2264 15.6767 61.2264 15.41ZM62.1964 15.41C62.1964 15.8033 62.1431 16.1667 62.0364 16.5C61.9364 16.8333 61.7864 17.12 61.5864 17.36C61.3864 17.6 61.1397 17.7867 60.8464 17.92C60.5597 18.0533 60.2297 18.12 59.8564 18.12C59.5564 18.12 59.2897 18.08 59.0564 18C58.8297 17.92 58.6597 17.8433 58.5464 17.77V19.85H57.6164V12.96C57.8364 12.9067 58.1097 12.85 58.4364 12.79C58.7697 12.7233 59.1531 12.69 59.5864 12.69C59.9864 12.69 60.3464 12.7533 60.6664 12.88C60.9864 13.0067 61.2597 13.1867 61.4864 13.42C61.7131 13.6533 61.8864 13.94 62.0064 14.28C62.1331 14.6133 62.1964 14.99 62.1964 15.41ZM63.2151 15.41C63.2151 14.95 63.2817 14.55 63.4151 14.21C63.5484 13.8633 63.7251 13.5767 63.9451 13.35C64.1651 13.1233 64.4184 12.9533 64.7051 12.84C64.9917 12.7267 65.2851 12.67 65.5851 12.67C66.2851 12.67 66.8217 12.89 67.1951 13.33C67.5684 13.7633 67.7551 14.4267 67.7551 15.32C67.7551 15.36 67.7551 15.4133 67.7551 15.48C67.7551 15.54 67.7517 15.5967 67.7451 15.65H64.1851C64.2251 16.19 64.3817 16.6 64.6551 16.88C64.9284 17.16 65.3551 17.3 65.9351 17.3C66.2617 17.3 66.5351 17.2733 66.7551 17.22C66.9817 17.16 67.1517 17.1033 67.2651 17.05L67.3951 17.83C67.2817 17.89 67.0817 17.9533 66.7951 18.02C66.5151 18.0867 66.1951 18.12 65.8351 18.12C65.3817 18.12 64.9884 18.0533 64.6551 17.92C64.3284 17.78 64.0584 17.59 63.8451 17.35C63.6317 17.11 63.4717 16.8267 63.3651 16.5C63.2651 16.1667 63.2151 15.8033 63.2151 15.41ZM66.7851 14.9C66.7917 14.48 66.6851 14.1367 66.4651 13.87C66.2517 13.5967 65.9551 13.46 65.5751 13.46C65.3617 13.46 65.1717 13.5033 65.0051 13.59C64.8451 13.67 64.7084 13.7767 64.5951 13.91C64.4817 14.0433 64.3917 14.1967 64.3251 14.37C64.2651 14.5433 64.2251 14.72 64.2051 14.9H66.7851ZM71.011 12.69C71.091 12.69 71.181 12.6967 71.281 12.71C71.3877 12.7167 71.491 12.73 71.591 12.75C71.691 12.7633 71.781 12.78 71.861 12.8C71.9477 12.8133 72.011 12.8267 72.051 12.84L71.891 13.65C71.8177 13.6233 71.6943 13.5933 71.521 13.56C71.3543 13.52 71.1377 13.5 70.871 13.5C70.6977 13.5 70.5243 13.52 70.351 13.56C70.1843 13.5933 70.0743 13.6167 70.021 13.63V18H69.091V13.02C69.311 12.94 69.5843 12.8667 69.911 12.8C70.2377 12.7267 70.6043 12.69 71.011 12.69ZM79.4929 17.16V18H75.3229V11.07H76.2929V17.16H79.4929ZM84.9213 15.4C84.9213 15.8133 84.8613 16.1867 84.7413 16.52C84.6213 16.8533 84.4513 17.14 84.2313 17.38C84.0179 17.62 83.7613 17.8067 83.4613 17.94C83.1613 18.0667 82.8346 18.13 82.4813 18.13C82.1279 18.13 81.8013 18.0667 81.5013 17.94C81.2013 17.8067 80.9413 17.62 80.7213 17.38C80.5079 17.14 80.3413 16.8533 80.2213 16.52C80.1013 16.1867 80.0413 15.8133 80.0413 15.4C80.0413 14.9933 80.1013 14.6233 80.2213 14.29C80.3413 13.95 80.5079 13.66 80.7213 13.42C80.9413 13.18 81.2013 12.9967 81.5013 12.87C81.8013 12.7367 82.1279 12.67 82.4813 12.67C82.8346 12.67 83.1613 12.7367 83.4613 12.87C83.7613 12.9967 84.0179 13.18 84.2313 13.42C84.4513 13.66 84.6213 13.95 84.7413 14.29C84.8613 14.6233 84.9213 14.9933 84.9213 15.4ZM83.9513 15.4C83.9513 14.8133 83.8179 14.35 83.5513 14.01C83.2913 13.6633 82.9346 13.49 82.4813 13.49C82.0279 13.49 81.6679 13.6633 81.4013 14.01C81.1413 14.35 81.0113 14.8133 81.0113 15.4C81.0113 15.9867 81.1413 16.4533 81.4013 16.8C81.6679 17.14 82.0279 17.31 82.4813 17.31C82.9346 17.31 83.2913 17.14 83.5513 16.8C83.8179 16.4533 83.9513 15.9867 83.9513 15.4ZM89.4897 17.48C89.4097 17.5333 89.253 17.6033 89.0197 17.69C88.793 17.77 88.5264 17.81 88.2197 17.81C87.9064 17.81 87.6097 17.76 87.3297 17.66C87.0564 17.56 86.8164 17.4067 86.6097 17.2C86.403 16.9867 86.2397 16.7233 86.1197 16.41C85.9997 16.0967 85.9397 15.7233 85.9397 15.29C85.9397 14.91 85.9964 14.5633 86.1097 14.25C86.223 13.93 86.3864 13.6567 86.5997 13.43C86.8197 13.1967 87.0864 13.0167 87.3997 12.89C87.713 12.7567 88.0664 12.69 88.4597 12.69C88.893 12.69 89.2697 12.7233 89.5897 12.79C89.9164 12.85 90.1897 12.9067 90.4097 12.96V17.6C90.4097 18.4 90.203 18.98 89.7897 19.34C89.3764 19.7 88.7497 19.88 87.9097 19.88C87.583 19.88 87.273 19.8533 86.9797 19.8C86.693 19.7467 86.443 19.6833 86.2297 19.61L86.3997 18.8C86.5864 18.8733 86.813 18.9367 87.0797 18.99C87.353 19.05 87.6364 19.08 87.9297 19.08C88.483 19.08 88.8797 18.97 89.1197 18.75C89.3664 18.53 89.4897 18.18 89.4897 17.7V17.48ZM89.4797 13.62C89.3864 13.5933 89.2597 13.57 89.0997 13.55C88.9464 13.5233 88.7364 13.51 88.4697 13.51C87.9697 13.51 87.583 13.6733 87.3097 14C87.043 14.3267 86.9097 14.76 86.9097 15.3C86.9097 15.6 86.9464 15.8567 87.0197 16.07C87.0997 16.2833 87.203 16.46 87.3297 16.6C87.463 16.74 87.613 16.8433 87.7797 16.91C87.953 16.9767 88.1297 17.01 88.3097 17.01C88.5564 17.01 88.783 16.9767 88.9897 16.91C89.1964 16.8367 89.3597 16.7533 89.4797 16.66V13.62ZM92.9409 18H92.0109V12.8H92.9409V18ZM92.4709 11.86C92.3043 11.86 92.1609 11.8067 92.0409 11.7C91.9276 11.5867 91.8709 11.4367 91.8709 11.25C91.8709 11.0633 91.9276 10.9167 92.0409 10.81C92.1609 10.6967 92.3043 10.64 92.4709 10.64C92.6376 10.64 92.7776 10.6967 92.8909 10.81C93.0109 10.9167 93.0709 11.0633 93.0709 11.25C93.0709 11.4367 93.0109 11.5867 92.8909 11.7C92.7776 11.8067 92.6376 11.86 92.4709 11.86ZM94.5402 12.95C94.7536 12.8967 95.0369 12.84 95.3902 12.78C95.7436 12.72 96.1502 12.69 96.6102 12.69C97.0236 12.69 97.3669 12.75 97.6402 12.87C97.9136 12.9833 98.1302 13.1467 98.2902 13.36C98.4569 13.5667 98.5736 13.8167 98.6402 14.11C98.7069 14.4033 98.7402 14.7267 98.7402 15.08V18H97.8102V15.28C97.8102 14.96 97.7869 14.6867 97.7402 14.46C97.7002 14.2333 97.6302 14.05 97.5302 13.91C97.4302 13.77 97.2969 13.67 97.1302 13.61C96.9636 13.5433 96.7569 13.51 96.5102 13.51C96.4102 13.51 96.3069 13.5133 96.2002 13.52C96.0936 13.5267 95.9902 13.5367 95.8902 13.55C95.7969 13.5567 95.7102 13.5667 95.6302 13.58C95.5569 13.5933 95.5036 13.6033 95.4702 13.61V18H94.5402V12.95Z" fill="black"/>
</svg>
