<svg width="14" height="12" viewBox="0 0 14 12" fill="none" xmlns="http://www.w3.org/2000/svg">
<path d="M11.95 1.9001H6.1L4.8 0.600098H1.55C0.835 0.600098 0.25 1.1851 0.25 1.9001V4.5001H13.25V3.2001C13.25 2.4851 12.665 1.9001 11.95 1.9001Z" fill="#FFA000"/>
<path d="M11.95 1.25H1.55C0.835 1.25 0.25 1.835 0.25 2.55V9.05C0.25 9.765 0.835 10.35 1.55 10.35H11.95C12.665 10.35 13.25 9.765 13.25 9.05V2.55C13.25 1.835 12.665 1.25 11.95 1.25Z" fill="white"/>
<path d="M11.95 1.90015H1.55C0.835 1.90015 0.25 2.48515 0.25 3.20015V9.70015C0.25 10.4151 0.835 11.0001 1.55 11.0001H11.95C12.665 11.0001 13.25 10.4151 13.25 9.70015V3.20015C13.25 2.48515 12.665 1.90015 11.95 1.90015Z" fill="#FFCA28"/>
<path d="M8.6 8.40015H5.4C5.18 8.40015 5 8.593 5 8.82872V10.9716C5 11.2073 5.18 11.4001 5.4 11.4001H8.6C8.82 11.4001 9 11.2073 9 10.9716V8.82872C9 8.593 8.82 8.40015 8.6 8.40015Z" fill="#0075FF"/>
</svg>
