<svg width="13" height="14" viewBox="0 0 13 14" fill="none" xmlns="http://www.w3.org/2000/svg">
<path d="M5.68953 0.5L4.87905 2.42893C4.71696 2.47756 4.57107 2.5586 4.42519 2.63965L2.49626 1.82918L1.32918 2.99626L2.13965 4.92519C2.0586 5.08728 1.99377 5.21696 1.92893 5.37905L0 6.18953V7.81047L1.92893 8.62095C1.99377 8.78304 2.0586 8.91272 2.13965 9.07481L1.32918 11.0037L2.49626 12.1708L4.42519 11.3603C4.57107 11.4252 4.71696 11.5062 4.87905 11.5711L5.68953 13.5H7.31047L8.12095 11.5711C8.26683 11.5062 8.42893 11.4414 8.57481 11.3603L10.5037 12.1708L11.6708 11.0037L10.8603 9.07481C10.9252 8.92893 11.0062 8.76683 11.0711 8.62095L13 7.81047V6.18953L11.0711 5.37905C11.0224 5.23317 10.9414 5.07107 10.8603 4.92519L11.6708 2.99626L10.5037 1.82918L8.57481 2.63965C8.42893 2.57481 8.26683 2.49377 8.12095 2.42893L7.31047 0.5L5.68953 0.5ZM6.5 4.55237C7.84539 4.55237 8.93142 5.6384 8.93142 6.98379C8.93142 8.32918 7.84539 9.41521 6.5 9.41521C5.15461 9.41521 4.06858 8.32918 4.06858 6.98379C4.06858 5.6384 5.15461 4.55237 6.5 4.55237Z" fill="black"/>
</svg>
