<svg width="14" height="12" viewBox="0 0 14 12" fill="none" xmlns="http://www.w3.org/2000/svg">
<path fill-rule="evenodd" clip-rule="evenodd" d="M0.5 1.9375C0.5 1.50652 0.671205 1.0932 0.975951 0.788451C1.2807 0.483705 1.69402 0.3125 2.125 0.3125H11.875C12.306 0.3125 12.7193 0.483705 13.024 0.788451C13.3288 1.0932 13.5 1.50652 13.5 1.9375V10.0625C13.5 10.4935 13.3288 10.9068 13.024 11.2115C12.7193 11.5163 12.306 11.6875 11.875 11.6875H2.125C1.69402 11.6875 1.2807 11.5163 0.975951 11.2115C0.671205 10.9068 0.5 10.4935 0.5 10.0625V1.9375ZM8.21875 6.40625H5.78125C5.67351 6.40625 5.57017 6.44905 5.49399 6.52524C5.4178 6.60142 5.375 6.70476 5.375 6.8125C5.375 6.92024 5.4178 7.02358 5.49399 7.09976C5.57017 7.17595 5.67351 7.21875 5.78125 7.21875H8.21875C8.32649 7.21875 8.42983 7.17595 8.50601 7.09976C8.5822 7.02358 8.625 6.92024 8.625 6.8125C8.625 6.70476 8.5822 6.60142 8.50601 6.52524C8.42983 6.44905 8.32649 6.40625 8.21875 6.40625ZM3.05612 6.11862L4.39431 4.78125L3.05612 3.44388C3.01835 3.4061 2.98839 3.36126 2.96795 3.31191C2.94751 3.26256 2.93699 3.20967 2.93699 3.15625C2.93699 3.10283 2.94751 3.04994 2.96795 3.00059C2.98839 2.95124 3.01835 2.9064 3.05612 2.86862C3.0939 2.83085 3.13874 2.80089 3.18809 2.78045C3.23744 2.76001 3.29033 2.74949 3.34375 2.74949C3.39717 2.74949 3.45006 2.76001 3.49941 2.78045C3.54876 2.80089 3.5936 2.83085 3.63138 2.86862L5.25638 4.49362C5.29421 4.53136 5.32422 4.57619 5.3447 4.62555C5.36518 4.6749 5.37573 4.72781 5.37573 4.78125C5.37573 4.83469 5.36518 4.8876 5.3447 4.93695C5.32422 4.98631 5.29421 5.03114 5.25638 5.06888L3.63138 6.69388C3.55509 6.77016 3.45163 6.81301 3.34375 6.81301C3.23587 6.81301 3.13241 6.77016 3.05612 6.69388C2.97984 6.61759 2.93699 6.51413 2.93699 6.40625C2.93699 6.29837 2.97984 6.19491 3.05612 6.11862Z" fill="black"/>
</svg>
