<svg width="209" height="111" viewBox="0 0 209 111" fill="none" xmlns="http://www.w3.org/2000/svg">
<rect width="209" height="111" rx="5" fill="white" fill-opacity="0.75"/>
<path d="M46.1117 12.191C46.1997 12.4917 46.295 12.8327 46.3977 13.214C46.5077 13.588 46.6214 13.9767 46.7387 14.38C46.8634 14.7833 46.988 15.1867 47.1127 15.59C47.2374 15.9933 47.3584 16.3673 47.4757 16.712C47.571 16.338 47.6664 15.931 47.7617 15.491C47.8644 15.051 47.9597 14.5963 48.0477 14.127C48.1357 13.6577 48.22 13.192 48.3007 12.73C48.3887 12.2607 48.4694 11.8097 48.5427 11.377H50.3247C50.068 12.653 49.771 13.9473 49.4337 15.26C49.1037 16.5727 48.7444 17.8193 48.3557 19H46.7827C46.526 18.296 46.2767 17.559 46.0347 16.789C45.7927 16.0117 45.5544 15.2343 45.3197 14.457C45.085 15.2343 44.8504 16.0117 44.6157 16.789C44.381 17.559 44.1354 18.296 43.8787 19H42.3057C41.917 17.8193 41.554 16.5727 41.2167 15.26C40.8867 13.9473 40.5934 12.653 40.3367 11.377H42.1957C42.269 11.8097 42.3497 12.2607 42.4377 12.73C42.5257 13.192 42.6174 13.6577 42.7127 14.127C42.808 14.5963 42.9034 15.051 42.9987 15.491C43.1014 15.931 43.204 16.338 43.3067 16.712C43.4387 16.3527 43.567 15.9713 43.6917 15.568C43.8164 15.1647 43.9374 14.7613 44.0547 14.358C44.172 13.9547 44.2784 13.566 44.3737 13.192C44.4764 12.818 44.568 12.4843 44.6487 12.191H46.1117ZM51.3174 19V10.728L52.9564 10.464V13.236C53.0664 13.1993 53.2057 13.1663 53.3744 13.137C53.5504 13.1003 53.719 13.082 53.8804 13.082C54.3497 13.082 54.7384 13.148 55.0464 13.28C55.3617 13.4047 55.611 13.5843 55.7944 13.819C55.985 14.0537 56.117 14.3323 56.1904 14.655C56.271 14.9777 56.3114 15.337 56.3114 15.733V19H54.6724V15.931C54.6724 15.403 54.6027 15.029 54.4634 14.809C54.3314 14.589 54.082 14.479 53.7154 14.479C53.5687 14.479 53.4294 14.4937 53.2974 14.523C53.1727 14.545 53.059 14.5707 52.9564 14.6V19H51.3174ZM60.0059 17.856C60.1672 17.856 60.3212 17.8523 60.4679 17.845C60.6146 17.8377 60.7319 17.8267 60.8199 17.812V16.569C60.7539 16.5543 60.6549 16.5397 60.5229 16.525C60.3909 16.5103 60.2699 16.503 60.1599 16.503C60.0059 16.503 59.8592 16.514 59.7199 16.536C59.5879 16.5507 59.4706 16.5837 59.3679 16.635C59.2652 16.6863 59.1846 16.756 59.1259 16.844C59.0672 16.932 59.0379 17.042 59.0379 17.174C59.0379 17.4307 59.1222 17.6103 59.2909 17.713C59.4669 17.8083 59.7052 17.856 60.0059 17.856ZM59.8739 13.06C60.3579 13.06 60.7612 13.115 61.0839 13.225C61.4066 13.335 61.6632 13.4927 61.8539 13.698C62.0519 13.9033 62.1912 14.1527 62.2719 14.446C62.3526 14.7393 62.3929 15.0657 62.3929 15.425V18.835C62.1582 18.8863 61.8319 18.945 61.4139 19.011C60.9959 19.0843 60.4899 19.121 59.8959 19.121C59.5219 19.121 59.1809 19.088 58.8729 19.022C58.5722 18.956 58.3119 18.8497 58.0919 18.703C57.8719 18.549 57.7032 18.351 57.5859 18.109C57.4686 17.867 57.4099 17.57 57.4099 17.218C57.4099 16.8807 57.4759 16.5947 57.6079 16.36C57.7472 16.1253 57.9306 15.9383 58.1579 15.799C58.3852 15.6597 58.6456 15.5607 58.9389 15.502C59.2322 15.436 59.5366 15.403 59.8519 15.403C60.0646 15.403 60.2516 15.414 60.4129 15.436C60.5816 15.4507 60.7172 15.4727 60.8199 15.502V15.348C60.8199 15.0693 60.7356 14.8457 60.5669 14.677C60.3982 14.5083 60.1049 14.424 59.6869 14.424C59.4082 14.424 59.1332 14.446 58.8619 14.49C58.5906 14.5267 58.3559 14.5817 58.1579 14.655L57.9489 13.335C58.0442 13.3057 58.1616 13.2763 58.3009 13.247C58.4476 13.2103 58.6052 13.181 58.7739 13.159C58.9426 13.1297 59.1186 13.1077 59.3019 13.093C59.4926 13.071 59.6832 13.06 59.8739 13.06ZM63.82 11.773L65.459 11.509V13.214H67.428V14.578H65.459V16.613C65.459 16.9577 65.5176 17.2327 65.635 17.438C65.7596 17.6433 66.0053 17.746 66.372 17.746C66.548 17.746 66.7276 17.7313 66.911 17.702C67.1016 17.6653 67.274 17.6177 67.428 17.559L67.659 18.835C67.461 18.9157 67.241 18.9853 66.999 19.044C66.757 19.1027 66.46 19.132 66.108 19.132C65.6606 19.132 65.2903 19.0733 64.997 18.956C64.7036 18.8313 64.469 18.6627 64.293 18.45C64.117 18.23 63.9923 17.966 63.919 17.658C63.853 17.35 63.82 17.009 63.82 16.635V11.773ZM72.8023 16.063C72.8023 16.569 72.9159 16.976 73.1433 17.284C73.3706 17.592 73.7079 17.746 74.1553 17.746C74.3019 17.746 74.4376 17.7423 74.5623 17.735C74.6869 17.7203 74.7896 17.7057 74.8703 17.691V14.71C74.7676 14.644 74.6319 14.589 74.4633 14.545C74.3019 14.501 74.1369 14.479 73.9683 14.479C73.1909 14.479 72.8023 15.007 72.8023 16.063ZM76.5093 18.813C76.3626 18.857 76.1939 18.901 76.0033 18.945C75.8126 18.9817 75.6109 19.0147 75.3983 19.044C75.1929 19.0733 74.9803 19.0953 74.7603 19.11C74.5476 19.132 74.3423 19.143 74.1443 19.143C73.6676 19.143 73.2423 19.0733 72.8683 18.934C72.4943 18.7947 72.1789 18.5967 71.9223 18.34C71.6656 18.076 71.4676 17.7607 71.3283 17.394C71.1963 17.02 71.1303 16.602 71.1303 16.14C71.1303 15.6707 71.1889 15.249 71.3063 14.875C71.4236 14.4937 71.5923 14.171 71.8123 13.907C72.0323 13.643 72.2999 13.4413 72.6153 13.302C72.9379 13.1627 73.3046 13.093 73.7153 13.093C73.9426 13.093 74.1443 13.115 74.3203 13.159C74.5036 13.203 74.6869 13.2653 74.8703 13.346V10.728L76.5093 10.464V18.813ZM83.4559 16.096C83.4559 16.5507 83.3899 16.9687 83.2579 17.35C83.1259 17.724 82.9353 18.0467 82.6859 18.318C82.4366 18.582 82.1359 18.7873 81.7839 18.934C81.4393 19.0807 81.0506 19.154 80.6179 19.154C80.1926 19.154 79.8039 19.0807 79.4519 18.934C79.1073 18.7873 78.8103 18.582 78.5609 18.318C78.3116 18.0467 78.1173 17.724 77.9779 17.35C77.8386 16.9687 77.7689 16.5507 77.7689 16.096C77.7689 15.6413 77.8386 15.227 77.9779 14.853C78.1246 14.479 78.3226 14.16 78.5719 13.896C78.8286 13.632 79.1293 13.4267 79.4739 13.28C79.8259 13.1333 80.2073 13.06 80.6179 13.06C81.0359 13.06 81.4173 13.1333 81.7619 13.28C82.1139 13.4267 82.4146 13.632 82.6639 13.896C82.9133 14.16 83.1076 14.479 83.2469 14.853C83.3863 15.227 83.4559 15.6413 83.4559 16.096ZM81.7839 16.096C81.7839 15.59 81.6813 15.194 81.4759 14.908C81.2779 14.6147 80.9919 14.468 80.6179 14.468C80.2439 14.468 79.9543 14.6147 79.7489 14.908C79.5436 15.194 79.4409 15.59 79.4409 16.096C79.4409 16.602 79.5436 17.0053 79.7489 17.306C79.9543 17.5993 80.2439 17.746 80.6179 17.746C80.9919 17.746 81.2779 17.5993 81.4759 17.306C81.6813 17.0053 81.7839 16.602 81.7839 16.096ZM92.5051 13.214C92.1751 14.3287 91.8305 15.3737 91.4711 16.349C91.1118 17.3243 90.7195 18.2703 90.2941 19.187C90.1401 19.517 89.9861 19.7957 89.8321 20.023C89.6781 20.2577 89.5095 20.4483 89.3261 20.595C89.1428 20.749 88.9338 20.859 88.6991 20.925C88.4718 20.9983 88.2041 21.035 87.8961 21.035C87.6395 21.035 87.4011 21.0093 87.1811 20.958C86.9685 20.914 86.7925 20.8627 86.6531 20.804L86.9391 19.495C87.1078 19.5537 87.2581 19.594 87.3901 19.616C87.5221 19.638 87.6615 19.649 87.8081 19.649C88.1015 19.649 88.3251 19.5683 88.4791 19.407C88.6405 19.253 88.7761 19.0367 88.8861 18.758C88.5121 18.0247 88.1381 17.2033 87.7641 16.294C87.3901 15.3773 87.0381 14.3507 86.7081 13.214H88.4461C88.5195 13.5 88.6038 13.8117 88.6991 14.149C88.8018 14.479 88.9081 14.8163 89.0181 15.161C89.1281 15.4983 89.2381 15.8283 89.3481 16.151C89.4655 16.4737 89.5755 16.767 89.6781 17.031C89.7735 16.767 89.8725 16.4737 89.9751 16.151C90.0778 15.8283 90.1768 15.4983 90.2721 15.161C90.3748 14.8163 90.4701 14.479 90.5581 14.149C90.6535 13.8117 90.7378 13.5 90.8111 13.214H92.5051ZM98.6454 16.096C98.6454 16.5507 98.5794 16.9687 98.4474 17.35C98.3154 17.724 98.1247 18.0467 97.8754 18.318C97.626 18.582 97.3254 18.7873 96.9734 18.934C96.6287 19.0807 96.24 19.154 95.8074 19.154C95.382 19.154 94.9934 19.0807 94.6414 18.934C94.2967 18.7873 93.9997 18.582 93.7504 18.318C93.501 18.0467 93.3067 17.724 93.1674 17.35C93.028 16.9687 92.9584 16.5507 92.9584 16.096C92.9584 15.6413 93.028 15.227 93.1674 14.853C93.314 14.479 93.512 14.16 93.7614 13.896C94.018 13.632 94.3187 13.4267 94.6634 13.28C95.0154 13.1333 95.3967 13.06 95.8074 13.06C96.2254 13.06 96.6067 13.1333 96.9514 13.28C97.3034 13.4267 97.604 13.632 97.8534 13.896C98.1027 14.16 98.297 14.479 98.4364 14.853C98.5757 15.227 98.6454 15.6413 98.6454 16.096ZM96.9734 16.096C96.9734 15.59 96.8707 15.194 96.6654 14.908C96.4674 14.6147 96.1814 14.468 95.8074 14.468C95.4334 14.468 95.1437 14.6147 94.9384 14.908C94.733 15.194 94.6304 15.59 94.6304 16.096C94.6304 16.602 94.733 17.0053 94.9384 17.306C95.1437 17.5993 95.4334 17.746 95.8074 17.746C96.1814 17.746 96.4674 17.5993 96.6654 17.306C96.8707 17.0053 96.9734 16.602 96.9734 16.096ZM104.854 18.802C104.575 18.8827 104.216 18.956 103.776 19.022C103.336 19.0953 102.874 19.132 102.39 19.132C101.899 19.132 101.488 19.066 101.158 18.934C100.835 18.802 100.579 18.6187 100.388 18.384C100.197 18.142 100.062 17.856 99.981 17.526C99.9004 17.196 99.86 16.833 99.86 16.437V13.214H101.499V16.239C101.499 16.767 101.569 17.1483 101.708 17.383C101.847 17.6177 102.108 17.735 102.489 17.735C102.606 17.735 102.731 17.7313 102.863 17.724C102.995 17.7093 103.112 17.6947 103.215 17.68V13.214H104.854V18.802ZM112.555 15.678C112.408 16.2353 112.251 16.789 112.082 17.339C111.921 17.889 111.748 18.4427 111.565 19H110.289C110.157 18.692 110.014 18.3253 109.86 17.9C109.706 17.4747 109.545 17.0127 109.376 16.514C109.215 16.008 109.046 15.4763 108.87 14.919C108.701 14.3543 108.536 13.786 108.375 13.214H110.102C110.161 13.478 110.223 13.7677 110.289 14.083C110.362 14.391 110.436 14.71 110.509 15.04C110.59 15.37 110.67 15.7037 110.751 16.041C110.839 16.371 110.927 16.69 111.015 16.998C111.11 16.6753 111.202 16.3453 111.29 16.008C111.385 15.6707 111.473 15.3407 111.554 15.018C111.642 14.688 111.723 14.3727 111.796 14.072C111.877 13.764 111.946 13.478 112.005 13.214H113.193C113.252 13.478 113.318 13.764 113.391 14.072C113.464 14.3727 113.541 14.688 113.622 15.018C113.703 15.3407 113.787 15.6707 113.875 16.008C113.963 16.3453 114.055 16.6753 114.15 16.998C114.238 16.69 114.326 16.371 114.414 16.041C114.502 15.7037 114.583 15.37 114.656 15.04C114.737 14.71 114.81 14.391 114.876 14.083C114.949 13.7677 115.015 13.478 115.074 13.214H116.779C116.618 13.786 116.449 14.3543 116.273 14.919C116.104 15.4763 115.936 16.008 115.767 16.514C115.606 17.0127 115.444 17.4747 115.283 17.9C115.129 18.3253 114.986 18.692 114.854 19H113.578C113.395 18.4427 113.215 17.889 113.039 17.339C112.863 16.789 112.702 16.2353 112.555 15.678ZM119.765 17.856C119.926 17.856 120.08 17.8523 120.227 17.845C120.373 17.8377 120.491 17.8267 120.579 17.812V16.569C120.513 16.5543 120.414 16.5397 120.282 16.525C120.15 16.5103 120.029 16.503 119.919 16.503C119.765 16.503 119.618 16.514 119.479 16.536C119.347 16.5507 119.229 16.5837 119.127 16.635C119.024 16.6863 118.943 16.756 118.885 16.844C118.826 16.932 118.797 17.042 118.797 17.174C118.797 17.4307 118.881 17.6103 119.05 17.713C119.226 17.8083 119.464 17.856 119.765 17.856ZM119.633 13.06C120.117 13.06 120.52 13.115 120.843 13.225C121.165 13.335 121.422 13.4927 121.613 13.698C121.811 13.9033 121.95 14.1527 122.031 14.446C122.111 14.7393 122.152 15.0657 122.152 15.425V18.835C121.917 18.8863 121.591 18.945 121.173 19.011C120.755 19.0843 120.249 19.121 119.655 19.121C119.281 19.121 118.94 19.088 118.632 19.022C118.331 18.956 118.071 18.8497 117.851 18.703C117.631 18.549 117.462 18.351 117.345 18.109C117.227 17.867 117.169 17.57 117.169 17.218C117.169 16.8807 117.235 16.5947 117.367 16.36C117.506 16.1253 117.689 15.9383 117.917 15.799C118.144 15.6597 118.404 15.5607 118.698 15.502C118.991 15.436 119.295 15.403 119.611 15.403C119.823 15.403 120.01 15.414 120.172 15.436C120.34 15.4507 120.476 15.4727 120.579 15.502V15.348C120.579 15.0693 120.494 14.8457 120.326 14.677C120.157 14.5083 119.864 14.424 119.446 14.424C119.167 14.424 118.892 14.446 118.621 14.49C118.349 14.5267 118.115 14.5817 117.917 14.655L117.708 13.335C117.803 13.3057 117.92 13.2763 118.06 13.247C118.206 13.2103 118.364 13.181 118.533 13.159C118.701 13.1297 118.877 13.1077 119.061 13.093C119.251 13.071 119.442 13.06 119.633 13.06ZM123.634 13.412C123.912 13.3313 124.272 13.258 124.712 13.192C125.152 13.1187 125.614 13.082 126.098 13.082C126.589 13.082 126.996 13.148 127.319 13.28C127.649 13.4047 127.909 13.5843 128.1 13.819C128.29 14.0537 128.426 14.3323 128.507 14.655C128.587 14.9777 128.628 15.337 128.628 15.733V19H126.989V15.931C126.989 15.403 126.919 15.029 126.78 14.809C126.64 14.589 126.38 14.479 125.999 14.479C125.881 14.479 125.757 14.4863 125.625 14.501C125.493 14.5083 125.375 14.5193 125.273 14.534V19H123.634V13.412ZM130.056 11.773L131.695 11.509V13.214H133.664V14.578H131.695V16.613C131.695 16.9577 131.754 17.2327 131.871 17.438C131.996 17.6433 132.242 17.746 132.608 17.746C132.784 17.746 132.964 17.7313 133.147 17.702C133.338 17.6653 133.51 17.6177 133.664 17.559L133.895 18.835C133.697 18.9157 133.477 18.9853 133.235 19.044C132.993 19.1027 132.696 19.132 132.344 19.132C131.897 19.132 131.527 19.0733 131.233 18.956C130.94 18.8313 130.705 18.6627 130.529 18.45C130.353 18.23 130.229 17.966 130.155 17.658C130.089 17.35 130.056 17.009 130.056 16.635V11.773ZM137.587 11.773L139.226 11.509V13.214H141.195V14.578H139.226V16.613C139.226 16.9577 139.284 17.2327 139.402 17.438C139.526 17.6433 139.772 17.746 140.139 17.746C140.315 17.746 140.494 17.7313 140.678 17.702C140.868 17.6653 141.041 17.6177 141.195 17.559L141.426 18.835C141.228 18.9157 141.008 18.9853 140.766 19.044C140.524 19.1027 140.227 19.132 139.875 19.132C139.427 19.132 139.057 19.0733 138.764 18.956C138.47 18.8313 138.236 18.6627 138.06 18.45C137.884 18.23 137.759 17.966 137.686 17.658C137.62 17.35 137.587 17.009 137.587 16.635V11.773ZM147.726 16.096C147.726 16.5507 147.66 16.9687 147.528 17.35C147.396 17.724 147.206 18.0467 146.956 18.318C146.707 18.582 146.406 18.7873 146.054 18.934C145.71 19.0807 145.321 19.154 144.888 19.154C144.463 19.154 144.074 19.0807 143.722 18.934C143.378 18.7873 143.081 18.582 142.831 18.318C142.582 18.0467 142.388 17.724 142.248 17.35C142.109 16.9687 142.039 16.5507 142.039 16.096C142.039 15.6413 142.109 15.227 142.248 14.853C142.395 14.479 142.593 14.16 142.842 13.896C143.099 13.632 143.4 13.4267 143.744 13.28C144.096 13.1333 144.478 13.06 144.888 13.06C145.306 13.06 145.688 13.1333 146.032 13.28C146.384 13.4267 146.685 13.632 146.934 13.896C147.184 14.16 147.378 14.479 147.517 14.853C147.657 15.227 147.726 15.6413 147.726 16.096ZM146.054 16.096C146.054 15.59 145.952 15.194 145.746 14.908C145.548 14.6147 145.262 14.468 144.888 14.468C144.514 14.468 144.225 14.6147 144.019 14.908C143.814 15.194 143.711 15.59 143.711 16.096C143.711 16.602 143.814 17.0053 144.019 17.306C144.225 17.5993 144.514 17.746 144.888 17.746C145.262 17.746 145.548 17.5993 145.746 17.306C145.952 17.0053 146.054 16.602 146.054 16.096ZM153.036 16.063C153.036 16.569 153.149 16.976 153.377 17.284C153.604 17.592 153.941 17.746 154.389 17.746C154.535 17.746 154.671 17.7423 154.796 17.735C154.92 17.7203 155.023 17.7057 155.104 17.691V14.71C155.001 14.644 154.865 14.589 154.697 14.545C154.535 14.501 154.37 14.479 154.202 14.479C153.424 14.479 153.036 15.007 153.036 16.063ZM156.743 18.813C156.596 18.857 156.427 18.901 156.237 18.945C156.046 18.9817 155.844 19.0147 155.632 19.044C155.426 19.0733 155.214 19.0953 154.994 19.11C154.781 19.132 154.576 19.143 154.378 19.143C153.901 19.143 153.476 19.0733 153.102 18.934C152.728 18.7947 152.412 18.5967 152.156 18.34C151.899 18.076 151.701 17.7607 151.562 17.394C151.43 17.02 151.364 16.602 151.364 16.14C151.364 15.6707 151.422 15.249 151.54 14.875C151.657 14.4937 151.826 14.171 152.046 13.907C152.266 13.643 152.533 13.4413 152.849 13.302C153.171 13.1627 153.538 13.093 153.949 13.093C154.176 13.093 154.378 13.115 154.554 13.159C154.737 13.203 154.92 13.2653 155.104 13.346V10.728L156.743 10.464V18.813ZM163.689 16.096C163.689 16.5507 163.623 16.9687 163.491 17.35C163.359 17.724 163.169 18.0467 162.919 18.318C162.67 18.582 162.369 18.7873 162.017 18.934C161.673 19.0807 161.284 19.154 160.851 19.154C160.426 19.154 160.037 19.0807 159.685 18.934C159.341 18.7873 159.044 18.582 158.794 18.318C158.545 18.0467 158.351 17.724 158.211 17.35C158.072 16.9687 158.002 16.5507 158.002 16.096C158.002 15.6413 158.072 15.227 158.211 14.853C158.358 14.479 158.556 14.16 158.805 13.896C159.062 13.632 159.363 13.4267 159.707 13.28C160.059 13.1333 160.441 13.06 160.851 13.06C161.269 13.06 161.651 13.1333 161.995 13.28C162.347 13.4267 162.648 13.632 162.897 13.896C163.147 14.16 163.341 14.479 163.48 14.853C163.62 15.227 163.689 15.6413 163.689 16.096ZM162.017 16.096C162.017 15.59 161.915 15.194 161.709 14.908C161.511 14.6147 161.225 14.468 160.851 14.468C160.477 14.468 160.188 14.6147 159.982 14.908C159.777 15.194 159.674 15.59 159.674 16.096C159.674 16.602 159.777 17.0053 159.982 17.306C160.188 17.5993 160.477 17.746 160.851 17.746C161.225 17.746 161.511 17.5993 161.709 17.306C161.915 17.0053 162.017 16.602 162.017 16.096ZM166.088 12.598C165.824 12.598 165.575 12.631 165.34 12.697C165.106 12.763 164.845 12.8693 164.559 13.016L164.097 11.773C164.383 11.5897 164.721 11.4503 165.109 11.355C165.498 11.2523 165.879 11.201 166.253 11.201C166.723 11.201 167.108 11.2633 167.408 11.388C167.716 11.5127 167.958 11.6703 168.134 11.861C168.31 12.0517 168.431 12.2607 168.497 12.488C168.571 12.7153 168.607 12.9317 168.607 13.137C168.607 13.3423 168.574 13.533 168.508 13.709C168.45 13.8777 168.373 14.0353 168.277 14.182C168.182 14.3287 168.072 14.468 167.947 14.6C167.823 14.732 167.702 14.8567 167.584 14.974C167.496 15.062 167.405 15.1573 167.309 15.26C167.214 15.3553 167.126 15.458 167.045 15.568C166.972 15.678 166.91 15.7953 166.858 15.92C166.807 16.0373 166.781 16.1583 166.781 16.283C166.781 16.3123 166.781 16.3563 166.781 16.415C166.781 16.4737 166.785 16.525 166.792 16.569H165.34C165.326 16.4957 165.315 16.415 165.307 16.327C165.307 16.2317 165.307 16.151 165.307 16.085C165.307 15.8797 165.333 15.6963 165.384 15.535C165.436 15.3663 165.502 15.2123 165.582 15.073C165.67 14.9263 165.769 14.7907 165.879 14.666C165.989 14.5413 166.103 14.4203 166.22 14.303C166.389 14.1343 166.543 13.9693 166.682 13.808C166.822 13.6393 166.891 13.4487 166.891 13.236C166.891 13.06 166.822 12.9097 166.682 12.785C166.55 12.6603 166.352 12.598 166.088 12.598ZM167.111 18.131C167.111 18.4537 167.005 18.703 166.792 18.879C166.587 19.055 166.352 19.143 166.088 19.143C165.824 19.143 165.586 19.055 165.373 18.879C165.168 18.703 165.065 18.4537 165.065 18.131C165.065 17.8083 165.168 17.559 165.373 17.383C165.586 17.207 165.824 17.119 166.088 17.119C166.352 17.119 166.587 17.207 166.792 17.383C167.005 17.559 167.111 17.8083 167.111 18.131Z" fill="black"/>
</svg>
