<svg width="182" height="111" viewBox="0 0 182 111" fill="none" xmlns="http://www.w3.org/2000/svg">
<rect width="182" height="111" rx="5" fill="white" fill-opacity="0.75"/>
<path d="M62.7727 48.289C63.9167 48.289 64.793 48.4943 65.4017 48.905C66.0103 49.3083 66.3147 49.939 66.3147 50.797C66.3147 51.3323 66.19 51.7687 65.9407 52.106C65.6987 52.436 65.3467 52.6963 64.8847 52.887C65.0387 53.0777 65.2 53.2977 65.3687 53.547C65.5373 53.789 65.7023 54.0457 65.8637 54.317C66.0323 54.581 66.1937 54.8597 66.3477 55.153C66.5017 55.439 66.6447 55.7213 66.7767 56H64.8517C64.7123 55.7507 64.5693 55.4977 64.4227 55.241C64.2833 54.9843 64.1367 54.735 63.9827 54.493C63.836 54.251 63.6893 54.0237 63.5427 53.811C63.396 53.591 63.2493 53.393 63.1027 53.217H62.2557V56H60.5397V48.487C60.9137 48.4137 61.2987 48.3623 61.6947 48.333C62.098 48.3037 62.4573 48.289 62.7727 48.289ZM62.8717 49.752C62.747 49.752 62.6333 49.7557 62.5307 49.763C62.4353 49.7703 62.3437 49.7777 62.2557 49.785V51.853H62.7397C63.385 51.853 63.847 51.7723 64.1257 51.611C64.4043 51.4497 64.5437 51.1747 64.5437 50.786C64.5437 50.412 64.4007 50.148 64.1147 49.994C63.836 49.8327 63.4217 49.752 62.8717 49.752ZM67.2123 53.151C67.2123 52.6377 67.2893 52.1903 67.4433 51.809C67.6046 51.4203 67.8136 51.0977 68.0703 50.841C68.327 50.5843 68.6203 50.39 68.9503 50.258C69.2876 50.126 69.6323 50.06 69.9843 50.06C70.8056 50.06 71.4546 50.313 71.9313 50.819C72.408 51.3177 72.6463 52.0547 72.6463 53.03C72.6463 53.1253 72.6426 53.2317 72.6353 53.349C72.628 53.459 72.6206 53.558 72.6133 53.646H68.8953C68.932 53.9833 69.0896 54.251 69.3683 54.449C69.647 54.647 70.021 54.746 70.4903 54.746C70.791 54.746 71.0843 54.7203 71.3703 54.669C71.6636 54.6103 71.902 54.5407 72.0853 54.46L72.3053 55.791C72.2173 55.835 72.1 55.879 71.9533 55.923C71.8066 55.967 71.6416 56.0037 71.4583 56.033C71.2823 56.0697 71.0916 56.099 70.8863 56.121C70.681 56.143 70.4756 56.154 70.2703 56.154C69.7496 56.154 69.295 56.077 68.9063 55.923C68.525 55.769 68.206 55.56 67.9493 55.296C67.7 55.0247 67.513 54.7057 67.3883 54.339C67.271 53.9723 67.2123 53.5763 67.2123 53.151ZM71.0623 52.524C71.055 52.3847 71.0293 52.249 70.9853 52.117C70.9486 51.985 70.8863 51.8677 70.7983 51.765C70.7176 51.6623 70.6113 51.578 70.4793 51.512C70.3546 51.446 70.197 51.413 70.0063 51.413C69.823 51.413 69.6653 51.446 69.5333 51.512C69.4013 51.5707 69.2913 51.6513 69.2033 51.754C69.1153 51.8567 69.0456 51.9777 68.9943 52.117C68.9503 52.249 68.9173 52.3847 68.8953 52.524H71.0623ZM77.6181 53.063C77.6181 52.007 77.2294 51.479 76.4521 51.479C76.2834 51.479 76.1148 51.501 75.9461 51.545C75.7848 51.589 75.6528 51.644 75.5501 51.71V54.691C75.6308 54.7057 75.7334 54.7203 75.8581 54.735C75.9828 54.7423 76.1184 54.746 76.2651 54.746C76.7124 54.746 77.0498 54.592 77.2771 54.284C77.5044 53.976 77.6181 53.569 77.6181 53.063ZM79.2901 53.107C79.2901 53.569 79.2204 53.987 79.0811 54.361C78.9491 54.735 78.7548 55.054 78.4981 55.318C78.2414 55.582 77.9261 55.7873 77.5521 55.934C77.1781 56.0733 76.7528 56.143 76.2761 56.143C76.0781 56.143 75.8691 56.132 75.6491 56.11C75.4364 56.0953 75.2238 56.0733 75.0111 56.044C74.8058 56.0147 74.6078 55.9817 74.4171 55.945C74.2264 55.901 74.0578 55.857 73.9111 55.813V47.728L75.5501 47.464V50.346C75.7334 50.2653 75.9241 50.203 76.1221 50.159C76.3201 50.115 76.5328 50.093 76.7601 50.093C77.1708 50.093 77.5338 50.1663 77.8491 50.313C78.1644 50.4523 78.4284 50.654 78.6411 50.918C78.8538 51.182 79.0151 51.501 79.1251 51.875C79.2351 52.2417 79.2901 52.6523 79.2901 53.107ZM85.9618 53.096C85.9618 53.5507 85.8958 53.9687 85.7638 54.35C85.6318 54.724 85.4411 55.0467 85.1918 55.318C84.9425 55.582 84.6418 55.7873 84.2898 55.934C83.9451 56.0807 83.5565 56.154 83.1238 56.154C82.6985 56.154 82.3098 56.0807 81.9578 55.934C81.6131 55.7873 81.3161 55.582 81.0668 55.318C80.8175 55.0467 80.6231 54.724 80.4838 54.35C80.3445 53.9687 80.2748 53.5507 80.2748 53.096C80.2748 52.6413 80.3445 52.227 80.4838 51.853C80.6305 51.479 80.8285 51.16 81.0778 50.896C81.3345 50.632 81.6351 50.4267 81.9798 50.28C82.3318 50.1333 82.7131 50.06 83.1238 50.06C83.5418 50.06 83.9231 50.1333 84.2678 50.28C84.6198 50.4267 84.9205 50.632 85.1698 50.896C85.4191 51.16 85.6135 51.479 85.7528 51.853C85.8921 52.227 85.9618 52.6413 85.9618 53.096ZM84.2898 53.096C84.2898 52.59 84.1871 52.194 83.9818 51.908C83.7838 51.6147 83.4978 51.468 83.1238 51.468C82.7498 51.468 82.4601 51.6147 82.2548 51.908C82.0495 52.194 81.9468 52.59 81.9468 53.096C81.9468 53.602 82.0495 54.0053 82.2548 54.306C82.4601 54.5993 82.7498 54.746 83.1238 54.746C83.4978 54.746 83.7838 54.5993 83.9818 54.306C84.1871 54.0053 84.2898 53.602 84.2898 53.096ZM92.6434 53.096C92.6434 53.5507 92.5774 53.9687 92.4454 54.35C92.3134 54.724 92.1228 55.0467 91.8734 55.318C91.6241 55.582 91.3234 55.7873 90.9714 55.934C90.6268 56.0807 90.2381 56.154 89.8054 56.154C89.3801 56.154 88.9914 56.0807 88.6394 55.934C88.2948 55.7873 87.9978 55.582 87.7484 55.318C87.4991 55.0467 87.3048 54.724 87.1654 54.35C87.0261 53.9687 86.9564 53.5507 86.9564 53.096C86.9564 52.6413 87.0261 52.227 87.1654 51.853C87.3121 51.479 87.5101 51.16 87.7594 50.896C88.0161 50.632 88.3168 50.4267 88.6614 50.28C89.0134 50.1333 89.3948 50.06 89.8054 50.06C90.2234 50.06 90.6048 50.1333 90.9494 50.28C91.3014 50.4267 91.6021 50.632 91.8514 50.896C92.1008 51.16 92.2951 51.479 92.4344 51.853C92.5738 52.227 92.6434 52.6413 92.6434 53.096ZM90.9714 53.096C90.9714 52.59 90.8688 52.194 90.6634 51.908C90.4654 51.6147 90.1794 51.468 89.8054 51.468C89.4314 51.468 89.1418 51.6147 88.9364 51.908C88.7311 52.194 88.6284 52.59 88.6284 53.096C88.6284 53.602 88.7311 54.0053 88.9364 54.306C89.1418 54.5993 89.4314 54.746 89.8054 54.746C90.1794 54.746 90.4654 54.5993 90.6634 54.306C90.8688 54.0053 90.9714 53.602 90.9714 53.096ZM93.8581 48.773L95.4971 48.509V50.214H97.4661V51.578H95.4971V53.613C95.4971 53.9577 95.5557 54.2327 95.6731 54.438C95.7977 54.6433 96.0434 54.746 96.4101 54.746C96.5861 54.746 96.7657 54.7313 96.9491 54.702C97.1397 54.6653 97.3121 54.6177 97.4661 54.559L97.6971 55.835C97.4991 55.9157 97.2791 55.9853 97.0371 56.044C96.7951 56.1027 96.4981 56.132 96.1461 56.132C95.6987 56.132 95.3284 56.0733 95.0351 55.956C94.7417 55.8313 94.5071 55.6627 94.3311 55.45C94.1551 55.23 94.0304 54.966 93.9571 54.658C93.8911 54.35 93.8581 54.009 93.8581 53.635V48.773ZM100.44 56H98.8008V50.214H100.44V56ZM100.594 48.542C100.594 48.8427 100.495 49.081 100.297 49.257C100.106 49.4257 99.8788 49.51 99.6148 49.51C99.3508 49.51 99.1198 49.4257 98.9218 49.257C98.7311 49.081 98.6358 48.8427 98.6358 48.542C98.6358 48.2413 98.7311 48.0067 98.9218 47.838C99.1198 47.662 99.3508 47.574 99.6148 47.574C99.8788 47.574 100.106 47.662 100.297 47.838C100.495 48.0067 100.594 48.2413 100.594 48.542ZM101.98 50.412C102.259 50.3313 102.618 50.258 103.058 50.192C103.498 50.1187 103.96 50.082 104.444 50.082C104.936 50.082 105.343 50.148 105.665 50.28C105.995 50.4047 106.256 50.5843 106.446 50.819C106.637 51.0537 106.773 51.3323 106.853 51.655C106.934 51.9777 106.974 52.337 106.974 52.733V56H105.335V52.931C105.335 52.403 105.266 52.029 105.126 51.809C104.987 51.589 104.727 51.479 104.345 51.479C104.228 51.479 104.103 51.4863 103.971 51.501C103.839 51.5083 103.722 51.5193 103.619 51.534V56H101.98V50.412ZM109.855 52.92C109.855 53.8367 110.225 54.295 110.966 54.295C111.135 54.295 111.292 54.273 111.439 54.229C111.586 54.185 111.71 54.1337 111.813 54.075V51.457C111.732 51.4423 111.637 51.4313 111.527 51.424C111.417 51.4093 111.289 51.402 111.142 51.402C110.709 51.402 110.387 51.545 110.174 51.831C109.961 52.117 109.855 52.48 109.855 52.92ZM113.452 55.274C113.452 56.22 113.21 56.9203 112.726 57.375C112.249 57.837 111.509 58.068 110.504 58.068C110.152 58.068 109.8 58.035 109.448 57.969C109.096 57.9103 108.77 57.8297 108.469 57.727L108.755 56.352C109.012 56.4547 109.279 56.5353 109.558 56.594C109.844 56.6527 110.167 56.682 110.526 56.682C110.995 56.682 111.325 56.5793 111.516 56.374C111.714 56.1687 111.813 55.9047 111.813 55.582V55.373C111.637 55.4537 111.454 55.516 111.263 55.56C111.08 55.5967 110.878 55.615 110.658 55.615C109.859 55.615 109.246 55.3803 108.821 54.911C108.396 54.4343 108.183 53.7707 108.183 52.92C108.183 52.4947 108.249 52.1097 108.381 51.765C108.513 51.413 108.704 51.1123 108.953 50.863C109.21 50.6137 109.521 50.423 109.888 50.291C110.255 50.1517 110.669 50.082 111.131 50.082C111.329 50.082 111.531 50.093 111.736 50.115C111.949 50.1297 112.158 50.1517 112.363 50.181C112.568 50.2103 112.763 50.247 112.946 50.291C113.137 50.3277 113.305 50.368 113.452 50.412V55.274ZM116.595 55.131C116.595 55.461 116.489 55.714 116.276 55.89C116.071 56.0587 115.836 56.143 115.572 56.143C115.308 56.143 115.07 56.0587 114.857 55.89C114.652 55.714 114.549 55.461 114.549 55.131C114.549 54.801 114.652 54.5517 114.857 54.383C115.07 54.207 115.308 54.119 115.572 54.119C115.836 54.119 116.071 54.207 116.276 54.383C116.489 54.5517 116.595 54.801 116.595 55.131ZM119.302 55.131C119.302 55.461 119.196 55.714 118.983 55.89C118.778 56.0587 118.543 56.143 118.279 56.143C118.015 56.143 117.777 56.0587 117.564 55.89C117.359 55.714 117.256 55.461 117.256 55.131C117.256 54.801 117.359 54.5517 117.564 54.383C117.777 54.207 118.015 54.119 118.279 54.119C118.543 54.119 118.778 54.207 118.983 54.383C119.196 54.5517 119.302 54.801 119.302 55.131ZM122.009 55.131C122.009 55.461 121.903 55.714 121.69 55.89C121.485 56.0587 121.25 56.143 120.986 56.143C120.722 56.143 120.484 56.0587 120.271 55.89C120.066 55.714 119.963 55.461 119.963 55.131C119.963 54.801 120.066 54.5517 120.271 54.383C120.484 54.207 120.722 54.119 120.986 54.119C121.25 54.119 121.485 54.207 121.69 54.383C121.903 54.5517 122.009 54.801 122.009 55.131Z" fill="black"/>
</svg>
