<svg width="182" height="111" viewBox="0 0 182 111" fill="none" xmlns="http://www.w3.org/2000/svg">
<rect width="182" height="111" rx="5" fill="white" fill-opacity="0.75"/>
<path d="M51.0332 54.691C51.2752 54.691 51.4732 54.6727 51.6272 54.636C51.7886 54.592 51.9169 54.537 52.0122 54.471C52.1076 54.3977 52.1736 54.3133 52.2102 54.218C52.2469 54.1227 52.2652 54.0163 52.2652 53.899C52.2652 53.6497 52.1479 53.4443 51.9132 53.283C51.6786 53.1143 51.2752 52.9347 50.7032 52.744C50.4539 52.656 50.2046 52.557 49.9552 52.447C49.7059 52.3297 49.4822 52.1867 49.2842 52.018C49.0862 51.842 48.9249 51.633 48.8002 51.391C48.6756 51.1417 48.6132 50.841 48.6132 50.489C48.6132 50.137 48.6792 49.8217 48.8112 49.543C48.9432 49.257 49.1302 49.015 49.3722 48.817C49.6142 48.619 49.9076 48.4687 50.2522 48.366C50.5969 48.256 50.9856 48.201 51.4182 48.201C51.9316 48.201 52.3752 48.256 52.7492 48.366C53.1232 48.476 53.4312 48.597 53.6732 48.729L53.1782 50.082C52.9656 49.972 52.7272 49.8767 52.4632 49.796C52.2066 49.708 51.8949 49.664 51.5282 49.664C51.1176 49.664 50.8206 49.7227 50.6372 49.84C50.4612 49.95 50.3732 50.1223 50.3732 50.357C50.3732 50.4963 50.4062 50.6137 50.4722 50.709C50.5382 50.8043 50.6299 50.8923 50.7472 50.973C50.8719 51.0463 51.0112 51.116 51.1652 51.182C51.3266 51.2407 51.5026 51.303 51.6932 51.369C52.0892 51.5157 52.4339 51.6623 52.7272 51.809C53.0206 51.9483 53.2626 52.1133 53.4532 52.304C53.6512 52.4947 53.7979 52.7183 53.8932 52.975C53.9886 53.2317 54.0362 53.5433 54.0362 53.91C54.0362 54.6213 53.7869 55.175 53.2882 55.571C52.7896 55.9597 52.0379 56.154 51.0332 56.154C50.6959 56.154 50.3916 56.132 50.1202 56.088C49.8489 56.0513 49.6069 56.0037 49.3942 55.945C49.1889 55.8863 49.0092 55.824 48.8552 55.758C48.7086 55.692 48.5839 55.6297 48.4812 55.571L48.9652 54.207C49.1926 54.3317 49.4712 54.4453 49.8012 54.548C50.1386 54.6433 50.5492 54.691 51.0332 54.691ZM55.2466 56V47.728L56.8856 47.464V50.236C56.9956 50.1993 57.1349 50.1663 57.3036 50.137C57.4796 50.1003 57.6482 50.082 57.8096 50.082C58.2789 50.082 58.6676 50.148 58.9756 50.28C59.2909 50.4047 59.5402 50.5843 59.7236 50.819C59.9142 51.0537 60.0462 51.3323 60.1196 51.655C60.2002 51.9777 60.2406 52.337 60.2406 52.733V56H58.6016V52.931C58.6016 52.403 58.5319 52.029 58.3926 51.809C58.2606 51.589 58.0112 51.479 57.6446 51.479C57.4979 51.479 57.3586 51.4937 57.2266 51.523C57.1019 51.545 56.9882 51.5707 56.8856 51.6V56H55.2466ZM66.6631 55.802C66.3844 55.8827 66.0251 55.956 65.5851 56.022C65.1451 56.0953 64.6831 56.132 64.1991 56.132C63.7078 56.132 63.2971 56.066 62.9671 55.934C62.6444 55.802 62.3878 55.6187 62.1971 55.384C62.0064 55.142 61.8708 54.856 61.7901 54.526C61.7094 54.196 61.6691 53.833 61.6691 53.437V50.214H63.3081V53.239C63.3081 53.767 63.3778 54.1483 63.5171 54.383C63.6564 54.6177 63.9168 54.735 64.2981 54.735C64.4154 54.735 64.5401 54.7313 64.6721 54.724C64.8041 54.7093 64.9214 54.6947 65.0241 54.68V50.214H66.6631V55.802ZM68.1466 48.773L69.7856 48.509V50.214H71.7546V51.578H69.7856V53.613C69.7856 53.9577 69.8443 54.2327 69.9616 54.438C70.0863 54.6433 70.332 54.746 70.6986 54.746C70.8746 54.746 71.0543 54.7313 71.2376 54.702C71.4283 54.6653 71.6006 54.6177 71.7546 54.559L71.9856 55.835C71.7876 55.9157 71.5676 55.9853 71.3256 56.044C71.0836 56.1027 70.7866 56.132 70.4346 56.132C69.9873 56.132 69.617 56.0733 69.3236 55.956C69.0303 55.8313 68.7956 55.6627 68.6196 55.45C68.4436 55.23 68.319 54.966 68.2456 54.658C68.1796 54.35 68.1466 54.009 68.1466 53.635V48.773ZM73.0343 48.773L74.6733 48.509V50.214H76.6423V51.578H74.6733V53.613C74.6733 53.9577 74.732 54.2327 74.8493 54.438C74.974 54.6433 75.2197 54.746 75.5863 54.746C75.7623 54.746 75.942 54.7313 76.1253 54.702C76.316 54.6653 76.4883 54.6177 76.6423 54.559L76.8733 55.835C76.6753 55.9157 76.4553 55.9853 76.2133 56.044C75.9713 56.1027 75.6743 56.132 75.3223 56.132C74.875 56.132 74.5047 56.0733 74.2113 55.956C73.918 55.8313 73.6833 55.6627 73.5073 55.45C73.3313 55.23 73.2067 54.966 73.1333 54.658C73.0673 54.35 73.0343 54.009 73.0343 53.635V48.773ZM79.616 56H77.977V50.214H79.616V56ZM79.77 48.542C79.77 48.8427 79.671 49.081 79.473 49.257C79.2824 49.4257 79.055 49.51 78.791 49.51C78.527 49.51 78.296 49.4257 78.098 49.257C77.9074 49.081 77.812 48.8427 77.812 48.542C77.812 48.2413 77.9074 48.0067 78.098 47.838C78.296 47.662 78.527 47.574 78.791 47.574C79.055 47.574 79.2824 47.662 79.473 47.838C79.671 48.0067 79.77 48.2413 79.77 48.542ZM81.1567 50.412C81.4354 50.3313 81.7947 50.258 82.2347 50.192C82.6747 50.1187 83.1367 50.082 83.6207 50.082C84.1121 50.082 84.5191 50.148 84.8417 50.28C85.1717 50.4047 85.4321 50.5843 85.6227 50.819C85.8134 51.0537 85.9491 51.3323 86.0297 51.655C86.1104 51.9777 86.1507 52.337 86.1507 52.733V56H84.5117V52.931C84.5117 52.403 84.4421 52.029 84.3027 51.809C84.1634 51.589 83.9031 51.479 83.5217 51.479C83.4044 51.479 83.2797 51.4863 83.1477 51.501C83.0157 51.5083 82.8984 51.5193 82.7957 51.534V56H81.1567V50.412ZM89.0313 52.92C89.0313 53.8367 89.4016 54.295 90.1423 54.295C90.3109 54.295 90.4686 54.273 90.6153 54.229C90.7619 54.185 90.8866 54.1337 90.9893 54.075V51.457C90.9086 51.4423 90.8133 51.4313 90.7033 51.424C90.5933 51.4093 90.4649 51.402 90.3183 51.402C89.8856 51.402 89.5629 51.545 89.3503 51.831C89.1376 52.117 89.0313 52.48 89.0313 52.92ZM92.6283 55.274C92.6283 56.22 92.3863 56.9203 91.9023 57.375C91.4256 57.837 90.6849 58.068 89.6803 58.068C89.3283 58.068 88.9763 58.035 88.6243 57.969C88.2723 57.9103 87.9459 57.8297 87.6453 57.727L87.9313 56.352C88.1879 56.4547 88.4556 56.5353 88.7343 56.594C89.0203 56.6527 89.3429 56.682 89.7023 56.682C90.1716 56.682 90.5016 56.5793 90.6923 56.374C90.8903 56.1687 90.9893 55.9047 90.9893 55.582V55.373C90.8133 55.4537 90.6299 55.516 90.4393 55.56C90.2559 55.5967 90.0543 55.615 89.8343 55.615C89.0349 55.615 88.4226 55.3803 87.9973 54.911C87.5719 54.4343 87.3593 53.7707 87.3593 52.92C87.3593 52.4947 87.4253 52.1097 87.5573 51.765C87.6893 51.413 87.8799 51.1123 88.1293 50.863C88.3859 50.6137 88.6976 50.423 89.0643 50.291C89.4309 50.1517 89.8453 50.082 90.3073 50.082C90.5053 50.082 90.7069 50.093 90.9123 50.115C91.1249 50.1297 91.3339 50.1517 91.5393 50.181C91.7446 50.2103 91.9389 50.247 92.1223 50.291C92.3129 50.3277 92.4816 50.368 92.6283 50.412V55.274ZM98.6341 54.603C98.7148 54.6103 98.8064 54.6177 98.9091 54.625C99.0191 54.625 99.1474 54.625 99.2941 54.625C100.152 54.625 100.786 54.4087 101.197 53.976C101.615 53.5433 101.824 52.9457 101.824 52.183C101.824 51.3837 101.626 50.7787 101.23 50.368C100.834 49.9573 100.207 49.752 99.3491 49.752C99.2318 49.752 99.1108 49.7557 98.9861 49.763C98.8614 49.763 98.7441 49.7703 98.6341 49.785V54.603ZM103.595 52.183C103.595 52.843 103.492 53.4187 103.287 53.91C103.082 54.4013 102.788 54.8083 102.407 55.131C102.033 55.4537 101.575 55.6957 101.032 55.857C100.489 56.0183 99.8808 56.099 99.2061 56.099C98.8981 56.099 98.5388 56.0843 98.1281 56.055C97.7174 56.033 97.3141 55.9817 96.9181 55.901V48.476C97.3141 48.4027 97.7248 48.355 98.1501 48.333C98.5828 48.3037 98.9531 48.289 99.2611 48.289C99.9138 48.289 100.504 48.3623 101.032 48.509C101.567 48.6557 102.026 48.8867 102.407 49.202C102.788 49.5173 103.082 49.9207 103.287 50.412C103.492 50.9033 103.595 51.4937 103.595 52.183ZM110.33 53.096C110.33 53.5507 110.264 53.9687 110.132 54.35C110 54.724 109.81 55.0467 109.56 55.318C109.311 55.582 109.01 55.7873 108.658 55.934C108.314 56.0807 107.925 56.154 107.492 56.154C107.067 56.154 106.678 56.0807 106.326 55.934C105.982 55.7873 105.685 55.582 105.435 55.318C105.186 55.0467 104.992 54.724 104.852 54.35C104.713 53.9687 104.643 53.5507 104.643 53.096C104.643 52.6413 104.713 52.227 104.852 51.853C104.999 51.479 105.197 51.16 105.446 50.896C105.703 50.632 106.004 50.4267 106.348 50.28C106.7 50.1333 107.082 50.06 107.492 50.06C107.91 50.06 108.292 50.1333 108.636 50.28C108.988 50.4267 109.289 50.632 109.538 50.896C109.788 51.16 109.982 51.479 110.121 51.853C110.261 52.227 110.33 52.6413 110.33 53.096ZM108.658 53.096C108.658 52.59 108.556 52.194 108.35 51.908C108.152 51.6147 107.866 51.468 107.492 51.468C107.118 51.468 106.829 51.6147 106.623 51.908C106.418 52.194 106.315 52.59 106.315 53.096C106.315 53.602 106.418 54.0053 106.623 54.306C106.829 54.5993 107.118 54.746 107.492 54.746C107.866 54.746 108.152 54.5993 108.35 54.306C108.556 54.0053 108.658 53.602 108.658 53.096ZM114.991 52.678C114.845 53.2353 114.687 53.789 114.518 54.339C114.357 54.889 114.185 55.4427 114.001 56H112.725C112.593 55.692 112.45 55.3253 112.296 54.9C112.142 54.4747 111.981 54.0127 111.812 53.514C111.651 53.008 111.482 52.4763 111.306 51.919C111.138 51.3543 110.973 50.786 110.811 50.214H112.538C112.597 50.478 112.659 50.7677 112.725 51.083C112.799 51.391 112.872 51.71 112.945 52.04C113.026 52.37 113.107 52.7037 113.187 53.041C113.275 53.371 113.363 53.69 113.451 53.998C113.547 53.6753 113.638 53.3453 113.726 53.008C113.822 52.6707 113.91 52.3407 113.99 52.018C114.078 51.688 114.159 51.3727 114.232 51.072C114.313 50.764 114.383 50.478 114.441 50.214H115.629C115.688 50.478 115.754 50.764 115.827 51.072C115.901 51.3727 115.978 51.688 116.058 52.018C116.139 52.3407 116.223 52.6707 116.311 53.008C116.399 53.3453 116.491 53.6753 116.586 53.998C116.674 53.69 116.762 53.371 116.85 53.041C116.938 52.7037 117.019 52.37 117.092 52.04C117.173 51.71 117.246 51.391 117.312 51.083C117.386 50.7677 117.452 50.478 117.51 50.214H119.215C119.054 50.786 118.885 51.3543 118.709 51.919C118.541 52.4763 118.372 53.008 118.203 53.514C118.042 54.0127 117.881 54.4747 117.719 54.9C117.565 55.3253 117.422 55.692 117.29 56H116.014C115.831 55.4427 115.651 54.889 115.475 54.339C115.299 53.789 115.138 53.2353 114.991 52.678ZM120.097 50.412C120.376 50.3313 120.735 50.258 121.175 50.192C121.615 50.1187 122.077 50.082 122.561 50.082C123.052 50.082 123.459 50.148 123.782 50.28C124.112 50.4047 124.372 50.5843 124.563 50.819C124.754 51.0537 124.889 51.3323 124.97 51.655C125.051 51.9777 125.091 52.337 125.091 52.733V56H123.452V52.931C123.452 52.403 123.382 52.029 123.243 51.809C123.104 51.589 122.843 51.479 122.462 51.479C122.345 51.479 122.22 51.4863 122.088 51.501C121.956 51.5083 121.839 51.5193 121.736 51.534V56H120.097V50.412ZM128.181 55.131C128.181 55.461 128.074 55.714 127.862 55.89C127.656 56.0587 127.422 56.143 127.158 56.143C126.894 56.143 126.655 56.0587 126.443 55.89C126.237 55.714 126.135 55.461 126.135 55.131C126.135 54.801 126.237 54.5517 126.443 54.383C126.655 54.207 126.894 54.119 127.158 54.119C127.422 54.119 127.656 54.207 127.862 54.383C128.074 54.5517 128.181 54.801 128.181 55.131ZM130.888 55.131C130.888 55.461 130.781 55.714 130.569 55.89C130.363 56.0587 130.129 56.143 129.865 56.143C129.601 56.143 129.362 56.0587 129.15 55.89C128.944 55.714 128.842 55.461 128.842 55.131C128.842 54.801 128.944 54.5517 129.15 54.383C129.362 54.207 129.601 54.119 129.865 54.119C130.129 54.119 130.363 54.207 130.569 54.383C130.781 54.5517 130.888 54.801 130.888 55.131ZM133.595 55.131C133.595 55.461 133.488 55.714 133.276 55.89C133.07 56.0587 132.836 56.143 132.572 56.143C132.308 56.143 132.069 56.0587 131.857 55.89C131.651 55.714 131.549 55.461 131.549 55.131C131.549 54.801 131.651 54.5517 131.857 54.383C132.069 54.207 132.308 54.119 132.572 54.119C132.836 54.119 133.07 54.207 133.276 54.383C133.488 54.5517 133.595 54.801 133.595 55.131Z" fill="black"/>
</svg>
