<svg width="79" height="79" viewBox="0 0 79 79" fill="none" xmlns="http://www.w3.org/2000/svg">
<path d="M27.2935 49C23.6205 48.743 21.7003 47.4408 20.714 45.9958C20.9031 42.4781 21.4507 38.0963 22.9899 34.1199C23.8723 31.8427 25.1245 29.7812 26.6607 28.2659C28.3403 26.4598 29.8922 25.0699 31.4559 23.9239C34.5425 21.6756 37.2502 20.6962 38.1072 20.3517C38.9739 20.0228 40.528 19.4046 42.4086 18.7163C44.2831 18.085 46.5538 17.1713 48.492 16.0542C52.4654 13.9174 55.7589 11.506 55.7535 11.5051C55.7604 11.506 52.239 13.4254 48.1475 15.0186C46.0832 15.8841 43.9739 16.4531 42.0051 16.9013C40.0677 17.3914 38.4315 17.8904 37.5304 18.2331C35.8455 18.925 25.7506 22.1018 20.5945 32.7511C19.4282 35.4711 18.6967 38.2849 18.223 40.9216C17.0574 40.2746 15.6064 39.0224 15.2112 36.7049C14.5223 32.6671 14.9056 20.5507 26.0697 13.82C37.2346 7.0902 49.6994 8.43528 55.6649 6.46151C61.6294 4.48771 64 0 64 0C64 0 59.0292 45.6793 27.2935 49Z" fill="white"/>
<path d="M6.422 72.206C9.05667 72.206 10.374 71.3047 10.374 69.502C10.374 68.9473 10.2527 68.4793 10.01 68.098C9.78467 67.6993 9.47267 67.3613 9.074 67.084C8.67533 66.7893 8.216 66.538 7.696 66.33C7.19333 66.122 6.656 65.914 6.084 65.706C5.42533 65.4807 4.80133 65.2293 4.212 64.952C3.62267 64.6573 3.11133 64.3193 2.678 63.938C2.24467 63.5393 1.898 63.0713 1.638 62.534C1.39533 61.9967 1.274 61.3467 1.274 60.584C1.274 59.0067 1.81133 57.776 2.886 56.892C3.96067 56.008 5.44267 55.566 7.332 55.566C8.424 55.566 9.412 55.6873 10.296 55.93C11.1973 56.1553 11.856 56.4067 12.272 56.684L11.466 58.738C11.102 58.5127 10.556 58.296 9.828 58.088C9.11733 57.8627 8.28533 57.75 7.332 57.75C6.84667 57.75 6.396 57.802 5.98 57.906C5.564 58.01 5.2 58.166 4.888 58.374C4.576 58.582 4.32467 58.8507 4.134 59.18C3.96067 59.492 3.874 59.8647 3.874 60.298C3.874 60.7833 3.96933 61.1907 4.16 61.52C4.35067 61.8493 4.61933 62.144 4.966 62.404C5.31267 62.6467 5.71133 62.872 6.162 63.08C6.63 63.288 7.14133 63.496 7.696 63.704C8.476 64.016 9.18667 64.328 9.828 64.64C10.4867 64.952 11.05 65.3247 11.518 65.758C12.0033 66.1913 12.376 66.7113 12.636 67.318C12.896 67.9073 13.026 68.6267 13.026 69.476C13.026 71.0533 12.4453 72.2667 11.284 73.116C10.14 73.9653 8.51933 74.39 6.422 74.39C5.71133 74.39 5.05267 74.338 4.446 74.234C3.85667 74.1473 3.328 74.0433 2.86 73.922C2.392 73.7833 1.98467 73.6447 1.638 73.506C1.30867 73.35 1.04867 73.22 0.858 73.116L1.612 71.036C2.01067 71.2613 2.61733 71.5127 3.432 71.79C4.24667 72.0673 5.24333 72.206 6.422 72.206ZM18.3359 74H15.9179V60.48H18.3359V74ZM17.1139 58.036C16.6806 58.036 16.3079 57.8973 15.9959 57.62C15.7012 57.3253 15.5539 56.9353 15.5539 56.45C15.5539 55.9647 15.7012 55.5833 15.9959 55.306C16.3079 55.0113 16.6806 54.864 17.1139 54.864C17.5472 54.864 17.9112 55.0113 18.2059 55.306C18.5179 55.5833 18.6739 55.9647 18.6739 56.45C18.6739 56.9353 18.5179 57.3253 18.2059 57.62C17.9112 57.8973 17.5472 58.036 17.1139 58.036ZM30.9701 72.648C30.7621 72.7867 30.3547 72.9687 29.7481 73.194C29.1587 73.402 28.4654 73.506 27.6681 73.506C26.8534 73.506 26.0821 73.376 25.3541 73.116C24.6434 72.856 24.0194 72.4573 23.4821 71.92C22.9447 71.3653 22.5201 70.6807 22.2081 69.866C21.8961 69.0513 21.7401 68.0807 21.7401 66.954C21.7401 65.966 21.8874 65.0647 22.1821 64.25C22.4767 63.418 22.9014 62.7073 23.4561 62.118C24.0281 61.5113 24.7214 61.0433 25.5361 60.714C26.3507 60.3673 27.2694 60.194 28.2921 60.194C29.4187 60.194 30.3981 60.2807 31.2301 60.454C32.0794 60.61 32.7901 60.7573 33.3621 60.896V72.96C33.3621 75.04 32.8247 76.548 31.7501 77.484C30.6754 78.42 29.0461 78.888 26.8621 78.888C26.0127 78.888 25.2067 78.8187 24.4441 78.68C23.6987 78.5413 23.0487 78.3767 22.4941 78.186L22.9361 76.08C23.4214 76.2707 24.0107 76.4353 24.7041 76.574C25.4147 76.73 26.1514 76.808 26.9141 76.808C28.3527 76.808 29.3841 76.522 30.0081 75.95C30.6494 75.378 30.9701 74.468 30.9701 73.22V72.648ZM30.9441 62.612C30.7014 62.5427 30.3721 62.482 29.9561 62.43C29.5574 62.3607 29.0114 62.326 28.3181 62.326C27.0181 62.326 26.0127 62.7507 25.3021 63.6C24.6087 64.4493 24.2621 65.576 24.2621 66.98C24.2621 67.76 24.3574 68.4273 24.5481 68.982C24.7561 69.5367 25.0247 69.996 25.3541 70.36C25.7007 70.724 26.0907 70.9927 26.5241 71.166C26.9747 71.3393 27.4341 71.426 27.9021 71.426C28.5434 71.426 29.1327 71.3393 29.6701 71.166C30.2074 70.9753 30.6321 70.7587 30.9441 70.516V62.612ZM37.5253 60.87C38.08 60.7313 38.8166 60.584 39.7353 60.428C40.654 60.272 41.7113 60.194 42.9073 60.194C43.982 60.194 44.8746 60.35 45.5853 60.662C46.296 60.9567 46.8593 61.3813 47.2753 61.936C47.7086 62.4733 48.012 63.1233 48.1853 63.886C48.3586 64.6487 48.4453 65.4893 48.4453 66.408V74H46.0273V66.928C46.0273 66.096 45.9666 65.3853 45.8453 64.796C45.7413 64.2067 45.5593 63.73 45.2993 63.366C45.0393 63.002 44.6926 62.742 44.2593 62.586C43.826 62.4127 43.2886 62.326 42.6473 62.326C42.3873 62.326 42.1186 62.3347 41.8413 62.352C41.564 62.3693 41.2953 62.3953 41.0353 62.43C40.7926 62.4473 40.5673 62.4733 40.3593 62.508C40.1686 62.5427 40.03 62.5687 39.9433 62.586V74H37.5253V60.87ZM58.6286 55.982H61.1506V74H58.6286V55.982ZM65.455 60.87C66.0097 60.7313 66.7463 60.584 67.665 60.428C68.5837 60.272 69.641 60.194 70.837 60.194C71.9117 60.194 72.8043 60.35 73.515 60.662C74.2257 60.9567 74.789 61.3813 75.205 61.936C75.6383 62.4733 75.9417 63.1233 76.115 63.886C76.2883 64.6487 76.375 65.4893 76.375 66.408V74H73.957V66.928C73.957 66.096 73.8963 65.3853 73.775 64.796C73.671 64.2067 73.489 63.73 73.229 63.366C72.969 63.002 72.6223 62.742 72.189 62.586C71.7557 62.4127 71.2183 62.326 70.577 62.326C70.317 62.326 70.0483 62.3347 69.771 62.352C69.4937 62.3693 69.225 62.3953 68.965 62.43C68.7223 62.4473 68.497 62.4733 68.289 62.508C68.0983 62.5427 67.9597 62.5687 67.873 62.586V74H65.455V60.87Z" fill="white"/>
</svg>
