<svg width="199" height="19" viewBox="0 0 199 19" fill="none" xmlns="http://www.w3.org/2000/svg">
<rect x="0.741699" width="197.516" height="19" rx="5" fill="#858585" fill-opacity="0.75"/>
<path d="M86.3945 12.154C85.1552 12.154 84.2092 11.8093 83.5565 11.12C82.9112 10.4307 82.5885 9.45167 82.5885 8.183C82.5885 7.55233 82.6875 6.99133 82.8855 6.5C83.0835 6.00133 83.3548 5.58333 83.6995 5.246C84.0442 4.90133 84.4548 4.641 84.9315 4.465C85.4082 4.289 85.9252 4.201 86.4825 4.201C86.8052 4.201 87.0985 4.22667 87.3625 4.278C87.6265 4.322 87.8575 4.377 88.0555 4.443C88.2535 4.50167 88.4185 4.564 88.5505 4.63C88.6825 4.696 88.7778 4.74733 88.8365 4.784L88.3415 6.17C88.1068 6.04533 87.8318 5.939 87.5165 5.851C87.2085 5.763 86.8565 5.719 86.4605 5.719C86.1965 5.719 85.9362 5.763 85.6795 5.851C85.4302 5.939 85.2065 6.082 85.0085 6.28C84.8178 6.47067 84.6638 6.72 84.5465 7.028C84.4292 7.336 84.3705 7.71 84.3705 8.15C84.3705 8.502 84.4072 8.832 84.4805 9.14C84.5612 9.44067 84.6858 9.701 84.8545 9.921C85.0305 10.141 85.2578 10.317 85.5365 10.449C85.8152 10.5737 86.1525 10.636 86.5485 10.636C86.7978 10.636 87.0215 10.6213 87.2195 10.592C87.4175 10.5627 87.5935 10.5297 87.7475 10.493C87.9015 10.449 88.0372 10.4013 88.1545 10.35C88.2718 10.2987 88.3782 10.251 88.4735 10.207L88.9465 11.582C88.7045 11.7287 88.3635 11.8607 87.9235 11.978C87.4835 12.0953 86.9738 12.154 86.3945 12.154ZM92.2597 10.856C92.4211 10.856 92.5751 10.8523 92.7217 10.845C92.8684 10.8377 92.9857 10.8267 93.0737 10.812V9.569C93.0077 9.55433 92.9087 9.53967 92.7767 9.525C92.6447 9.51033 92.5237 9.503 92.4137 9.503C92.2597 9.503 92.1131 9.514 91.9737 9.536C91.8417 9.55067 91.7244 9.58367 91.6217 9.635C91.5191 9.68633 91.4384 9.756 91.3797 9.844C91.3211 9.932 91.2917 10.042 91.2917 10.174C91.2917 10.4307 91.3761 10.6103 91.5447 10.713C91.7207 10.8083 91.9591 10.856 92.2597 10.856ZM92.1277 6.06C92.6117 6.06 93.0151 6.115 93.3377 6.225C93.6604 6.335 93.9171 6.49267 94.1077 6.698C94.3057 6.90333 94.4451 7.15267 94.5257 7.446C94.6064 7.73933 94.6467 8.06567 94.6467 8.425V11.835C94.4121 11.8863 94.0857 11.945 93.6677 12.011C93.2497 12.0843 92.7437 12.121 92.1497 12.121C91.7757 12.121 91.4347 12.088 91.1267 12.022C90.8261 11.956 90.5657 11.8497 90.3457 11.703C90.1257 11.549 89.9571 11.351 89.8397 11.109C89.7224 10.867 89.6637 10.57 89.6637 10.218C89.6637 9.88067 89.7297 9.59467 89.8617 9.36C90.0011 9.12533 90.1844 8.93833 90.4117 8.799C90.6391 8.65967 90.8994 8.56067 91.1927 8.502C91.4861 8.436 91.7904 8.403 92.1057 8.403C92.3184 8.403 92.5054 8.414 92.6667 8.436C92.8354 8.45067 92.9711 8.47267 93.0737 8.502V8.348C93.0737 8.06933 92.9894 7.84567 92.8207 7.677C92.6521 7.50833 92.3587 7.424 91.9407 7.424C91.6621 7.424 91.3871 7.446 91.1157 7.49C90.8444 7.52667 90.6097 7.58167 90.4117 7.655L90.2027 6.335C90.2981 6.30567 90.4154 6.27633 90.5547 6.247C90.7014 6.21033 90.8591 6.181 91.0277 6.159C91.1964 6.12967 91.3724 6.10767 91.5557 6.093C91.7464 6.071 91.9371 6.06 92.1277 6.06ZM96.1288 6.412C96.4075 6.33133 96.7668 6.258 97.2068 6.192C97.6468 6.11867 98.1088 6.082 98.5928 6.082C99.0842 6.082 99.4912 6.148 99.8138 6.28C100.144 6.40467 100.404 6.58433 100.595 6.819C100.785 7.05367 100.921 7.33233 101.002 7.655C101.082 7.97767 101.123 8.337 101.123 8.733V12H99.4838V8.931C99.4838 8.403 99.4142 8.029 99.2748 7.809C99.1355 7.589 98.8752 7.479 98.4938 7.479C98.3765 7.479 98.2518 7.48633 98.1198 7.501C97.9878 7.50833 97.8705 7.51933 97.7678 7.534V12H96.1288V6.412ZM102.331 9.107C102.331 8.689 102.397 8.29667 102.529 7.93C102.669 7.556 102.867 7.23333 103.123 6.962C103.38 6.68333 103.692 6.46333 104.058 6.302C104.425 6.14067 104.843 6.06 105.312 6.06C105.62 6.06 105.903 6.08933 106.159 6.148C106.416 6.19933 106.665 6.27633 106.907 6.379L106.566 7.688C106.412 7.62933 106.244 7.578 106.06 7.534C105.877 7.49 105.672 7.468 105.444 7.468C104.96 7.468 104.597 7.61833 104.355 7.919C104.121 8.21967 104.003 8.61567 104.003 9.107C104.003 9.62767 104.113 10.031 104.333 10.317C104.561 10.603 104.953 10.746 105.51 10.746C105.708 10.746 105.921 10.7277 106.148 10.691C106.376 10.6543 106.585 10.5957 106.775 10.515L107.006 11.857C106.816 11.9377 106.577 12.0073 106.291 12.066C106.005 12.1247 105.69 12.154 105.345 12.154C104.817 12.154 104.363 12.077 103.981 11.923C103.6 11.7617 103.285 11.5453 103.035 11.274C102.793 11.0027 102.614 10.6837 102.496 10.317C102.386 9.943 102.331 9.53967 102.331 9.107ZM107.552 9.151C107.552 8.63767 107.629 8.19033 107.783 7.809C107.944 7.42033 108.153 7.09767 108.41 6.841C108.667 6.58433 108.96 6.39 109.29 6.258C109.627 6.126 109.972 6.06 110.324 6.06C111.145 6.06 111.794 6.313 112.271 6.819C112.748 7.31767 112.986 8.05467 112.986 9.03C112.986 9.12533 112.982 9.23167 112.975 9.349C112.968 9.459 112.96 9.558 112.953 9.646H109.235C109.272 9.98333 109.429 10.251 109.708 10.449C109.987 10.647 110.361 10.746 110.83 10.746C111.131 10.746 111.424 10.7203 111.71 10.669C112.003 10.6103 112.242 10.5407 112.425 10.46L112.645 11.791C112.557 11.835 112.44 11.879 112.293 11.923C112.146 11.967 111.981 12.0037 111.798 12.033C111.622 12.0697 111.431 12.099 111.226 12.121C111.021 12.143 110.815 12.154 110.61 12.154C110.089 12.154 109.635 12.077 109.246 11.923C108.865 11.769 108.546 11.56 108.289 11.296C108.04 11.0247 107.853 10.7057 107.728 10.339C107.611 9.97233 107.552 9.57633 107.552 9.151ZM111.402 8.524C111.395 8.38467 111.369 8.249 111.325 8.117C111.288 7.985 111.226 7.86767 111.138 7.765C111.057 7.66233 110.951 7.578 110.819 7.512C110.694 7.446 110.537 7.413 110.346 7.413C110.163 7.413 110.005 7.446 109.873 7.512C109.741 7.57067 109.631 7.65133 109.543 7.754C109.455 7.85667 109.385 7.97767 109.334 8.117C109.29 8.249 109.257 8.38467 109.235 8.524H111.402ZM116.561 12.11C116.084 12.1027 115.696 12.0513 115.395 11.956C115.102 11.8607 114.867 11.7287 114.691 11.56C114.522 11.384 114.405 11.175 114.339 10.933C114.28 10.6837 114.251 10.405 114.251 10.097V3.728L115.89 3.464V9.767C115.89 9.91367 115.901 10.0457 115.923 10.163C115.945 10.2803 115.985 10.3793 116.044 10.46C116.11 10.5407 116.202 10.6067 116.319 10.658C116.436 10.7093 116.594 10.7423 116.792 10.757L116.561 12.11Z" fill="white"/>
</svg>
