<svg width="57" height="19" viewBox="0 0 57 19" fill="none" xmlns="http://www.w3.org/2000/svg">
<rect width="57" height="19" rx="5" fill="#FF7A00" fill-opacity="0.75"/>
<path d="M12.4275 4.289C13.5715 4.289 14.4478 4.49433 15.0565 4.905C15.6651 5.30833 15.9695 5.939 15.9695 6.797C15.9695 7.33233 15.8448 7.76867 15.5955 8.106C15.3535 8.436 15.0015 8.69633 14.5395 8.887C14.6935 9.07767 14.8548 9.29767 15.0235 9.547C15.1921 9.789 15.3571 10.0457 15.5185 10.317C15.6871 10.581 15.8485 10.8597 16.0025 11.153C16.1565 11.439 16.2995 11.7213 16.4315 12H14.5065C14.3671 11.7507 14.2241 11.4977 14.0775 11.241C13.9381 10.9843 13.7915 10.735 13.6375 10.493C13.4908 10.251 13.3441 10.0237 13.1975 9.811C13.0508 9.591 12.9041 9.393 12.7575 9.217H11.9105V12H10.1945V4.487C10.5685 4.41367 10.9535 4.36233 11.3495 4.333C11.7528 4.30367 12.1121 4.289 12.4275 4.289ZM12.5265 5.752C12.4018 5.752 12.2881 5.75567 12.1855 5.763C12.0901 5.77033 11.9985 5.77767 11.9105 5.785V7.853H12.3945C13.0398 7.853 13.5018 7.77233 13.7805 7.611C14.0591 7.44967 14.1985 7.17467 14.1985 6.786C14.1985 6.412 14.0555 6.148 13.7695 5.994C13.4908 5.83267 13.0765 5.752 12.5265 5.752ZM16.8671 9.151C16.8671 8.63767 16.9441 8.19033 17.0981 7.809C17.2594 7.42033 17.4684 7.09767 17.7251 6.841C17.9817 6.58433 18.2751 6.39 18.6051 6.258C18.9424 6.126 19.2871 6.06 19.6391 6.06C20.4604 6.06 21.1094 6.313 21.5861 6.819C22.0627 7.31767 22.3011 8.05467 22.3011 9.03C22.3011 9.12533 22.2974 9.23167 22.2901 9.349C22.2827 9.459 22.2754 9.558 22.2681 9.646H18.5501C18.5867 9.98333 18.7444 10.251 19.0231 10.449C19.3017 10.647 19.6757 10.746 20.1451 10.746C20.4457 10.746 20.7391 10.7203 21.0251 10.669C21.3184 10.6103 21.5567 10.5407 21.7401 10.46L21.9601 11.791C21.8721 11.835 21.7547 11.879 21.6081 11.923C21.4614 11.967 21.2964 12.0037 21.1131 12.033C20.9371 12.0697 20.7464 12.099 20.5411 12.121C20.3357 12.143 20.1304 12.154 19.9251 12.154C19.4044 12.154 18.9497 12.077 18.5611 11.923C18.1797 11.769 17.8607 11.56 17.6041 11.296C17.3547 11.0247 17.1677 10.7057 17.0431 10.339C16.9257 9.97233 16.8671 9.57633 16.8671 9.151ZM20.7171 8.524C20.7097 8.38467 20.6841 8.249 20.6401 8.117C20.6034 7.985 20.5411 7.86767 20.4531 7.765C20.3724 7.66233 20.2661 7.578 20.1341 7.512C20.0094 7.446 19.8517 7.413 19.6611 7.413C19.4777 7.413 19.3201 7.446 19.1881 7.512C19.0561 7.57067 18.9461 7.65133 18.8581 7.754C18.7701 7.85667 18.7004 7.97767 18.6491 8.117C18.6051 8.249 18.5721 8.38467 18.5501 8.524H20.7171ZM27.2729 9.063C27.2729 8.007 26.8842 7.479 26.1069 7.479C25.9382 7.479 25.7696 7.501 25.6009 7.545C25.4396 7.589 25.3076 7.644 25.2049 7.71V10.691C25.2856 10.7057 25.3882 10.7203 25.5129 10.735C25.6376 10.7423 25.7732 10.746 25.9199 10.746C26.3672 10.746 26.7046 10.592 26.9319 10.284C27.1592 9.976 27.2729 9.569 27.2729 9.063ZM28.9449 9.107C28.9449 9.569 28.8752 9.987 28.7359 10.361C28.6039 10.735 28.4096 11.054 28.1529 11.318C27.8962 11.582 27.5809 11.7873 27.2069 11.934C26.8329 12.0733 26.4076 12.143 25.9309 12.143C25.7329 12.143 25.5239 12.132 25.3039 12.11C25.0912 12.0953 24.8786 12.0733 24.6659 12.044C24.4606 12.0147 24.2626 11.9817 24.0719 11.945C23.8812 11.901 23.7126 11.857 23.5659 11.813V3.728L25.2049 3.464V6.346C25.3882 6.26533 25.5789 6.203 25.7769 6.159C25.9749 6.115 26.1876 6.093 26.4149 6.093C26.8256 6.093 27.1886 6.16633 27.5039 6.313C27.8192 6.45233 28.0832 6.654 28.2959 6.918C28.5086 7.182 28.6699 7.501 28.7799 7.875C28.8899 8.24167 28.9449 8.65233 28.9449 9.107ZM35.6166 9.096C35.6166 9.55067 35.5506 9.96867 35.4186 10.35C35.2866 10.724 35.0959 11.0467 34.8466 11.318C34.5972 11.582 34.2966 11.7873 33.9446 11.934C33.5999 12.0807 33.2112 12.154 32.7786 12.154C32.3532 12.154 31.9646 12.0807 31.6126 11.934C31.2679 11.7873 30.9709 11.582 30.7216 11.318C30.4722 11.0467 30.2779 10.724 30.1386 10.35C29.9992 9.96867 29.9296 9.55067 29.9296 9.096C29.9296 8.64133 29.9992 8.227 30.1386 7.853C30.2852 7.479 30.4832 7.16 30.7326 6.896C30.9892 6.632 31.2899 6.42667 31.6346 6.28C31.9866 6.13333 32.3679 6.06 32.7786 6.06C33.1966 6.06 33.5779 6.13333 33.9226 6.28C34.2746 6.42667 34.5752 6.632 34.8246 6.896C35.0739 7.16 35.2682 7.479 35.4076 7.853C35.5469 8.227 35.6166 8.64133 35.6166 9.096ZM33.9446 9.096C33.9446 8.59 33.8419 8.194 33.6366 7.908C33.4386 7.61467 33.1526 7.468 32.7786 7.468C32.4046 7.468 32.1149 7.61467 31.9096 7.908C31.7042 8.194 31.6016 8.59 31.6016 9.096C31.6016 9.602 31.7042 10.0053 31.9096 10.306C32.1149 10.5993 32.4046 10.746 32.7786 10.746C33.1526 10.746 33.4386 10.5993 33.6366 10.306C33.8419 10.0053 33.9446 9.602 33.9446 9.096ZM42.2982 9.096C42.2982 9.55067 42.2322 9.96867 42.1002 10.35C41.9682 10.724 41.7775 11.0467 41.5282 11.318C41.2789 11.582 40.9782 11.7873 40.6262 11.934C40.2815 12.0807 39.8929 12.154 39.4602 12.154C39.0349 12.154 38.6462 12.0807 38.2942 11.934C37.9495 11.7873 37.6525 11.582 37.4032 11.318C37.1539 11.0467 36.9595 10.724 36.8202 10.35C36.6809 9.96867 36.6112 9.55067 36.6112 9.096C36.6112 8.64133 36.6809 8.227 36.8202 7.853C36.9669 7.479 37.1649 7.16 37.4142 6.896C37.6709 6.632 37.9715 6.42667 38.3162 6.28C38.6682 6.13333 39.0495 6.06 39.4602 6.06C39.8782 6.06 40.2595 6.13333 40.6042 6.28C40.9562 6.42667 41.2569 6.632 41.5062 6.896C41.7555 7.16 41.9499 7.479 42.0892 7.853C42.2285 8.227 42.2982 8.64133 42.2982 9.096ZM40.6262 9.096C40.6262 8.59 40.5235 8.194 40.3182 7.908C40.1202 7.61467 39.8342 7.468 39.4602 7.468C39.0862 7.468 38.7965 7.61467 38.5912 7.908C38.3859 8.194 38.2832 8.59 38.2832 9.096C38.2832 9.602 38.3859 10.0053 38.5912 10.306C38.7965 10.5993 39.0862 10.746 39.4602 10.746C39.8342 10.746 40.1202 10.5993 40.3182 10.306C40.5235 10.0053 40.6262 9.602 40.6262 9.096ZM43.5129 4.773L45.1519 4.509V6.214H47.1209V7.578H45.1519V9.613C45.1519 9.95767 45.2105 10.2327 45.3279 10.438C45.4525 10.6433 45.6982 10.746 46.0649 10.746C46.2409 10.746 46.4205 10.7313 46.6039 10.702C46.7945 10.6653 46.9669 10.6177 47.1209 10.559L47.3519 11.835C47.1539 11.9157 46.9339 11.9853 46.6919 12.044C46.4499 12.1027 46.1529 12.132 45.8009 12.132C45.3535 12.132 44.9832 12.0733 44.6899 11.956C44.3965 11.8313 44.1619 11.6627 43.9859 11.45C43.8099 11.23 43.6852 10.966 43.6119 10.658C43.5459 10.35 43.5129 10.009 43.5129 9.635V4.773Z" fill="white"/>
</svg>
