<svg width="73" height="19" viewBox="0 0 73 19" fill="none" xmlns="http://www.w3.org/2000/svg">
<rect x="0.741699" width="72.2582" height="19" rx="5" fill="#FF0000" fill-opacity="0.75"/>
<path d="M11.5027 10.691C11.7447 10.691 11.9427 10.6727 12.0967 10.636C12.258 10.592 12.3863 10.537 12.4817 10.471C12.577 10.3977 12.643 10.3133 12.6797 10.218C12.7163 10.1227 12.7347 10.0163 12.7347 9.899C12.7347 9.64967 12.6173 9.44433 12.3827 9.283C12.148 9.11433 11.7447 8.93467 11.1727 8.744C10.9233 8.656 10.674 8.557 10.4247 8.447C10.1753 8.32967 9.95167 8.18667 9.75367 8.018C9.55567 7.842 9.39434 7.633 9.26967 7.391C9.145 7.14167 9.08267 6.841 9.08267 6.489C9.08267 6.137 9.14867 5.82167 9.28067 5.543C9.41267 5.257 9.59967 5.015 9.84167 4.817C10.0837 4.619 10.377 4.46867 10.7217 4.366C11.0663 4.256 11.455 4.201 11.8877 4.201C12.401 4.201 12.8447 4.256 13.2187 4.366C13.5927 4.476 13.9007 4.597 14.1427 4.729L13.6477 6.082C13.435 5.972 13.1967 5.87667 12.9327 5.796C12.676 5.708 12.3643 5.664 11.9977 5.664C11.587 5.664 11.29 5.72267 11.1067 5.84C10.9307 5.95 10.8427 6.12233 10.8427 6.357C10.8427 6.49633 10.8757 6.61367 10.9417 6.709C11.0077 6.80433 11.0993 6.89233 11.2167 6.973C11.3413 7.04633 11.4807 7.116 11.6347 7.182C11.796 7.24067 11.972 7.303 12.1627 7.369C12.5587 7.51567 12.9033 7.66233 13.1967 7.809C13.49 7.94833 13.732 8.11333 13.9227 8.304C14.1207 8.49467 14.2673 8.71833 14.3627 8.975C14.458 9.23167 14.5057 9.54333 14.5057 9.91C14.5057 10.6213 14.2563 11.175 13.7577 11.571C13.259 11.9597 12.5073 12.154 11.5027 12.154C11.1653 12.154 10.861 12.132 10.5897 12.088C10.3183 12.0513 10.0763 12.0037 9.86367 11.945C9.65834 11.8863 9.47867 11.824 9.32467 11.758C9.178 11.692 9.05334 11.6297 8.95067 11.571L9.43467 10.207C9.662 10.3317 9.94067 10.4453 10.2707 10.548C10.608 10.6433 11.0187 10.691 11.5027 10.691ZM15.716 12V3.728L17.355 3.464V6.236C17.465 6.19933 17.6043 6.16633 17.773 6.137C17.949 6.10033 18.1177 6.082 18.279 6.082C18.7483 6.082 19.137 6.148 19.445 6.28C19.7603 6.40467 20.0097 6.58433 20.193 6.819C20.3837 7.05367 20.5157 7.33233 20.589 7.655C20.6697 7.97767 20.71 8.337 20.71 8.733V12H19.071V8.931C19.071 8.403 19.0013 8.029 18.862 7.809C18.73 7.589 18.4807 7.479 18.114 7.479C17.9673 7.479 17.828 7.49367 17.696 7.523C17.5713 7.545 17.4577 7.57067 17.355 7.6V12H15.716ZM27.1326 11.802C26.8539 11.8827 26.4946 11.956 26.0546 12.022C25.6146 12.0953 25.1526 12.132 24.6686 12.132C24.1772 12.132 23.7666 12.066 23.4366 11.934C23.1139 11.802 22.8572 11.6187 22.6666 11.384C22.4759 11.142 22.3402 10.856 22.2596 10.526C22.1789 10.196 22.1386 9.833 22.1386 9.437V6.214H23.7776V9.239C23.7776 9.767 23.8472 10.1483 23.9866 10.383C24.1259 10.6177 24.3862 10.735 24.7676 10.735C24.8849 10.735 25.0096 10.7313 25.1416 10.724C25.2736 10.7093 25.3909 10.6947 25.4936 10.68V6.214H27.1326V11.802ZM28.6161 4.773L30.2551 4.509V6.214H32.2241V7.578H30.2551V9.613C30.2551 9.95767 30.3138 10.2327 30.4311 10.438C30.5558 10.6433 30.8014 10.746 31.1681 10.746C31.3441 10.746 31.5238 10.7313 31.7071 10.702C31.8978 10.6653 32.0701 10.6177 32.2241 10.559L32.4551 11.835C32.2571 11.9157 32.0371 11.9853 31.7951 12.044C31.5531 12.1027 31.2561 12.132 30.9041 12.132C30.4568 12.132 30.0864 12.0733 29.7931 11.956C29.4998 11.8313 29.2651 11.6627 29.0891 11.45C28.9131 11.23 28.7884 10.966 28.7151 10.658C28.6491 10.35 28.6161 10.009 28.6161 9.635V4.773ZM38.0274 10.603C38.108 10.6103 38.1997 10.6177 38.3024 10.625C38.4124 10.625 38.5407 10.625 38.6874 10.625C39.5454 10.625 40.1797 10.4087 40.5904 9.976C41.0084 9.54333 41.2174 8.94567 41.2174 8.183C41.2174 7.38367 41.0194 6.77867 40.6234 6.368C40.2274 5.95733 39.6004 5.752 38.7424 5.752C38.625 5.752 38.504 5.75567 38.3794 5.763C38.2547 5.763 38.1374 5.77033 38.0274 5.785V10.603ZM42.9884 8.183C42.9884 8.843 42.8857 9.41867 42.6804 9.91C42.475 10.4013 42.1817 10.8083 41.8004 11.131C41.4264 11.4537 40.968 11.6957 40.4254 11.857C39.8827 12.0183 39.274 12.099 38.5994 12.099C38.2914 12.099 37.932 12.0843 37.5214 12.055C37.1107 12.033 36.7074 11.9817 36.3114 11.901V4.476C36.7074 4.40267 37.118 4.355 37.5434 4.333C37.976 4.30367 38.3464 4.289 38.6544 4.289C39.307 4.289 39.8974 4.36233 40.4254 4.509C40.9607 4.65567 41.419 4.88667 41.8004 5.202C42.1817 5.51733 42.475 5.92067 42.6804 6.412C42.8857 6.90333 42.9884 7.49367 42.9884 8.183ZM49.7237 9.096C49.7237 9.55067 49.6577 9.96867 49.5257 10.35C49.3937 10.724 49.2031 11.0467 48.9537 11.318C48.7044 11.582 48.4037 11.7873 48.0517 11.934C47.7071 12.0807 47.3184 12.154 46.8857 12.154C46.4604 12.154 46.0717 12.0807 45.7197 11.934C45.3751 11.7873 45.0781 11.582 44.8287 11.318C44.5794 11.0467 44.3851 10.724 44.2457 10.35C44.1064 9.96867 44.0367 9.55067 44.0367 9.096C44.0367 8.64133 44.1064 8.227 44.2457 7.853C44.3924 7.479 44.5904 7.16 44.8397 6.896C45.0964 6.632 45.3971 6.42667 45.7417 6.28C46.0937 6.13333 46.4751 6.06 46.8857 6.06C47.3037 6.06 47.6851 6.13333 48.0297 6.28C48.3817 6.42667 48.6824 6.632 48.9317 6.896C49.1811 7.16 49.3754 7.479 49.5147 7.853C49.6541 8.227 49.7237 8.64133 49.7237 9.096ZM48.0517 9.096C48.0517 8.59 47.9491 8.194 47.7437 7.908C47.5457 7.61467 47.2597 7.468 46.8857 7.468C46.5117 7.468 46.2221 7.61467 46.0167 7.908C45.8114 8.194 45.7087 8.59 45.7087 9.096C45.7087 9.602 45.8114 10.0053 46.0167 10.306C46.2221 10.5993 46.5117 10.746 46.8857 10.746C47.2597 10.746 47.5457 10.5993 47.7437 10.306C47.9491 10.0053 48.0517 9.602 48.0517 9.096ZM54.3845 8.678C54.2378 9.23533 54.0801 9.789 53.9115 10.339C53.7501 10.889 53.5778 11.4427 53.3945 12H52.1185C51.9865 11.692 51.8435 11.3253 51.6895 10.9C51.5355 10.4747 51.3741 10.0127 51.2055 9.514C51.0441 9.008 50.8755 8.47633 50.6995 7.919C50.5308 7.35433 50.3658 6.786 50.2045 6.214H51.9315C51.9901 6.478 52.0525 6.76767 52.1185 7.083C52.1918 7.391 52.2651 7.71 52.3385 8.04C52.4191 8.37 52.4998 8.70367 52.5805 9.041C52.6685 9.371 52.7565 9.69 52.8445 9.998C52.9398 9.67533 53.0315 9.34533 53.1195 9.008C53.2148 8.67067 53.3028 8.34067 53.3835 8.018C53.4715 7.688 53.5521 7.37267 53.6255 7.072C53.7061 6.764 53.7758 6.478 53.8345 6.214H55.0225C55.0811 6.478 55.1471 6.764 55.2205 7.072C55.2938 7.37267 55.3708 7.688 55.4515 8.018C55.5321 8.34067 55.6165 8.67067 55.7045 9.008C55.7925 9.34533 55.8841 9.67533 55.9795 9.998C56.0675 9.69 56.1555 9.371 56.2435 9.041C56.3315 8.70367 56.4121 8.37 56.4855 8.04C56.5661 7.71 56.6395 7.391 56.7055 7.083C56.7788 6.76767 56.8448 6.478 56.9035 6.214H58.6085C58.4471 6.786 58.2785 7.35433 58.1025 7.919C57.9338 8.47633 57.7651 9.008 57.5965 9.514C57.4351 10.0127 57.2738 10.4747 57.1125 10.9C56.9585 11.3253 56.8155 11.692 56.6835 12H55.4075C55.2241 11.4427 55.0445 10.889 54.8685 10.339C54.6925 9.789 54.5311 9.23533 54.3845 8.678ZM59.4904 6.412C59.7691 6.33133 60.1284 6.258 60.5684 6.192C61.0084 6.11867 61.4704 6.082 61.9544 6.082C62.4458 6.082 62.8528 6.148 63.1754 6.28C63.5054 6.40467 63.7658 6.58433 63.9564 6.819C64.1471 7.05367 64.2828 7.33233 64.3634 7.655C64.4441 7.97767 64.4844 8.337 64.4844 8.733V12H62.8454V8.931C62.8454 8.403 62.7758 8.029 62.6364 7.809C62.4971 7.589 62.2368 7.479 61.8554 7.479C61.7381 7.479 61.6134 7.48633 61.4814 7.501C61.3494 7.50833 61.2321 7.51933 61.1294 7.534V12H59.4904V6.412Z" fill="white"/>
</svg>
