<svg width="57" height="19" viewBox="0 0 57 19" fill="none" xmlns="http://www.w3.org/2000/svg">
<rect width="57" height="19" rx="5" fill="#14FF00" fill-opacity="0.75"/>
<path d="M16.7744 10.691C17.0164 10.691 17.2144 10.6727 17.3684 10.636C17.5298 10.592 17.6581 10.537 17.7534 10.471C17.8488 10.3977 17.9148 10.3133 17.9514 10.218C17.9881 10.1227 18.0064 10.0163 18.0064 9.899C18.0064 9.64967 17.8891 9.44433 17.6544 9.283C17.4198 9.11433 17.0164 8.93467 16.4444 8.744C16.1951 8.656 15.9458 8.557 15.6964 8.447C15.4471 8.32967 15.2234 8.18667 15.0254 8.018C14.8274 7.842 14.6661 7.633 14.5414 7.391C14.4168 7.14167 14.3544 6.841 14.3544 6.489C14.3544 6.137 14.4204 5.82167 14.5524 5.543C14.6844 5.257 14.8714 5.015 15.1134 4.817C15.3554 4.619 15.6488 4.46867 15.9934 4.366C16.3381 4.256 16.7268 4.201 17.1594 4.201C17.6728 4.201 18.1164 4.256 18.4904 4.366C18.8644 4.476 19.1724 4.597 19.4144 4.729L18.9194 6.082C18.7068 5.972 18.4684 5.87667 18.2044 5.796C17.9478 5.708 17.6361 5.664 17.2694 5.664C16.8588 5.664 16.5618 5.72267 16.3784 5.84C16.2024 5.95 16.1144 6.12233 16.1144 6.357C16.1144 6.49633 16.1474 6.61367 16.2134 6.709C16.2794 6.80433 16.3711 6.89233 16.4884 6.973C16.6131 7.04633 16.7524 7.116 16.9064 7.182C17.0678 7.24067 17.2438 7.303 17.4344 7.369C17.8304 7.51567 18.1751 7.66233 18.4684 7.809C18.7618 7.94833 19.0038 8.11333 19.1944 8.304C19.3924 8.49467 19.5391 8.71833 19.6344 8.975C19.7298 9.23167 19.7774 9.54333 19.7774 9.91C19.7774 10.6213 19.5281 11.175 19.0294 11.571C18.5308 11.9597 17.7791 12.154 16.7744 12.154C16.4371 12.154 16.1328 12.132 15.8614 12.088C15.5901 12.0513 15.3481 12.0037 15.1354 11.945C14.9301 11.8863 14.7504 11.824 14.5964 11.758C14.4498 11.692 14.3251 11.6297 14.2224 11.571L14.7064 10.207C14.9338 10.3317 15.2124 10.4453 15.5424 10.548C15.8798 10.6433 16.2904 10.691 16.7744 10.691ZM23.2978 12.11C22.8211 12.1027 22.4324 12.0513 22.1318 11.956C21.8384 11.8607 21.6038 11.7287 21.4278 11.56C21.2591 11.384 21.1418 11.175 21.0758 10.933C21.0171 10.6837 20.9878 10.405 20.9878 10.097V3.728L22.6268 3.464V9.767C22.6268 9.91367 22.6378 10.0457 22.6598 10.163C22.6818 10.2803 22.7221 10.3793 22.7808 10.46C22.8468 10.5407 22.9384 10.6067 23.0558 10.658C23.1731 10.7093 23.3308 10.7423 23.5288 10.757L23.2978 12.11ZM24.1932 9.151C24.1932 8.63767 24.2702 8.19033 24.4242 7.809C24.5856 7.42033 24.7946 7.09767 25.0512 6.841C25.3079 6.58433 25.6012 6.39 25.9312 6.258C26.2686 6.126 26.6132 6.06 26.9652 6.06C27.7866 6.06 28.4356 6.313 28.9122 6.819C29.3889 7.31767 29.6272 8.05467 29.6272 9.03C29.6272 9.12533 29.6236 9.23167 29.6162 9.349C29.6089 9.459 29.6016 9.558 29.5942 9.646H25.8762C25.9129 9.98333 26.0706 10.251 26.3492 10.449C26.6279 10.647 27.0019 10.746 27.4712 10.746C27.7719 10.746 28.0652 10.7203 28.3512 10.669C28.6446 10.6103 28.8829 10.5407 29.0662 10.46L29.2862 11.791C29.1982 11.835 29.0809 11.879 28.9342 11.923C28.7876 11.967 28.6226 12.0037 28.4392 12.033C28.2632 12.0697 28.0726 12.099 27.8672 12.121C27.6619 12.143 27.4566 12.154 27.2512 12.154C26.7306 12.154 26.2759 12.077 25.8872 11.923C25.5059 11.769 25.1869 11.56 24.9302 11.296C24.6809 11.0247 24.4939 10.7057 24.3692 10.339C24.2519 9.97233 24.1932 9.57633 24.1932 9.151ZM28.0432 8.524C28.0359 8.38467 28.0102 8.249 27.9662 8.117C27.9296 7.985 27.8672 7.86767 27.7792 7.765C27.6986 7.66233 27.5922 7.578 27.4602 7.512C27.3356 7.446 27.1779 7.413 26.9872 7.413C26.8039 7.413 26.6462 7.446 26.5142 7.512C26.3822 7.57067 26.2722 7.65133 26.1842 7.754C26.0962 7.85667 26.0266 7.97767 25.9752 8.117C25.9312 8.249 25.8982 8.38467 25.8762 8.524H28.0432ZM30.6171 9.151C30.6171 8.63767 30.6941 8.19033 30.8481 7.809C31.0094 7.42033 31.2184 7.09767 31.4751 6.841C31.7317 6.58433 32.0251 6.39 32.3551 6.258C32.6924 6.126 33.0371 6.06 33.3891 6.06C34.2104 6.06 34.8594 6.313 35.3361 6.819C35.8127 7.31767 36.0511 8.05467 36.0511 9.03C36.0511 9.12533 36.0474 9.23167 36.0401 9.349C36.0327 9.459 36.0254 9.558 36.0181 9.646H32.3001C32.3367 9.98333 32.4944 10.251 32.7731 10.449C33.0517 10.647 33.4257 10.746 33.8951 10.746C34.1957 10.746 34.4891 10.7203 34.7751 10.669C35.0684 10.6103 35.3067 10.5407 35.4901 10.46L35.7101 11.791C35.6221 11.835 35.5047 11.879 35.3581 11.923C35.2114 11.967 35.0464 12.0037 34.8631 12.033C34.6871 12.0697 34.4964 12.099 34.2911 12.121C34.0857 12.143 33.8804 12.154 33.6751 12.154C33.1544 12.154 32.6997 12.077 32.3111 11.923C31.9297 11.769 31.6107 11.56 31.3541 11.296C31.1047 11.0247 30.9177 10.7057 30.7931 10.339C30.6757 9.97233 30.6171 9.57633 30.6171 9.151ZM34.4671 8.524C34.4597 8.38467 34.4341 8.249 34.3901 8.117C34.3534 7.985 34.2911 7.86767 34.2031 7.765C34.1224 7.66233 34.0161 7.578 33.8841 7.512C33.7594 7.446 33.6017 7.413 33.4111 7.413C33.2277 7.413 33.0701 7.446 32.9381 7.512C32.8061 7.57067 32.6961 7.65133 32.6081 7.754C32.5201 7.85667 32.4504 7.97767 32.3991 8.117C32.3551 8.249 32.3221 8.38467 32.3001 8.524H34.4671ZM41.0229 9.151C41.0229 8.645 40.9092 8.24167 40.6819 7.941C40.4546 7.633 40.1172 7.479 39.6699 7.479C39.5232 7.479 39.3876 7.48633 39.2629 7.501C39.1382 7.50833 39.0356 7.51933 38.9549 7.534V10.493C39.0576 10.559 39.1896 10.614 39.3509 10.658C39.5196 10.702 39.6882 10.724 39.8569 10.724C40.6342 10.724 41.0229 10.1997 41.0229 9.151ZM42.6949 9.107C42.6949 9.55433 42.6399 9.96133 42.5299 10.328C42.4199 10.6947 42.2586 11.01 42.0459 11.274C41.8332 11.538 41.5692 11.7433 41.2539 11.89C40.9386 12.0367 40.5756 12.11 40.1649 12.11C39.9376 12.11 39.7249 12.088 39.5269 12.044C39.3289 12 39.1382 11.9377 38.9549 11.857V14.035H37.3159V6.412C37.4626 6.368 37.6312 6.32767 37.8219 6.291C38.0126 6.247 38.2106 6.21033 38.4159 6.181C38.6286 6.15167 38.8412 6.12967 39.0539 6.115C39.2739 6.093 39.4829 6.082 39.6809 6.082C40.1576 6.082 40.5829 6.15533 40.9569 6.302C41.3309 6.44133 41.6462 6.643 41.9029 6.907C42.1596 7.16367 42.3539 7.479 42.4859 7.853C42.6252 8.227 42.6949 8.645 42.6949 9.107Z" fill="white"/>
</svg>
